<?xml version="1.0" encoding="UTF-8" standalone="no"?>
<!-- Created with Inkscape (http://www.inkscape.org/) -->

<svg
   xmlns:dc="http://purl.org/dc/elements/1.1/"
   xmlns:cc="http://creativecommons.org/ns#"
   xmlns:rdf="http://www.w3.org/1999/02/22-rdf-syntax-ns#"
   xmlns:svg="http://www.w3.org/2000/svg"
   xmlns="http://www.w3.org/2000/svg"
   xmlns:sodipodi="http://sodipodi.sourceforge.net/DTD/sodipodi-0.dtd"
   xmlns:inkscape="http://www.inkscape.org/namespaces/inkscape"
   width="594mm"
   height="841mm"
   viewBox="0 0 594 841"
   version="1.1"
   id="svg8"
   inkscape:version="0.92.2 (5c3e80d, 2017-08-06)"
   sodipodi:docname="poster_nofonts.svg">
  <sodipodi:namedview
     id="base"
     pagecolor="#ffffff"
     bordercolor="#666666"
     borderopacity="1.0"
     inkscape:pageopacity="0.0"
     inkscape:pageshadow="2"
     inkscape:zoom="0.31945223"
     inkscape:cx="857.68192"
     inkscape:cy="843.82119"
     inkscape:document-units="mm"
     inkscape:current-layer="flowRoot1703"
     showgrid="false"
     inkscape:window-width="1600"
     inkscape:window-height="900"
     inkscape:window-x="0"
     inkscape:window-y="0"
     inkscape:window-maximized="0"
     showguides="true">
    <inkscape:grid
       type="xygrid"
       id="grid1032" />
  </sodipodi:namedview>
  <defs
     id="defs2" />
  <metadata
     id="metadata5">
    <rdf:RDF>
      <cc:Work
         rdf:about="">
        <dc:format>image/svg+xml</dc:format>
        <dc:type
           rdf:resource="http://purl.org/dc/dcmitype/StillImage" />
        <dc:title></dc:title>
      </cc:Work>
    </rdf:RDF>
  </metadata>
  <g
     inkscape:groupmode="layer"
     id="layer4"
     inkscape:label="bg"
     style="display:inline"
     sodipodi:insensitive="true">
    <rect
       style="display:inline;opacity:1;fill:#240029;fill-opacity:1;stroke:none;stroke-width:0.10000001;stroke-linecap:butt;stroke-linejoin:miter;stroke-miterlimit:4;stroke-dasharray:none;stroke-opacity:1;paint-order:normal"
       id="rect2263"
       width="594"
       height="841"
       x="0"
       y="1.1368684e-13" />
  </g>
  <g
     inkscape:groupmode="layer"
     id="layer6"
     inkscape:label="mdeck" />
  <g
     style="display:inline"
     inkscape:label="infos"
     id="g1747"
     inkscape:groupmode="layer">
    <g
       id="g994"
       transform="translate(-463.00743,4.3792078)"
       style="fill:#ffffff;fill-opacity:1">
      <path
         d="m 540.06318,768.64339 -8.31215,23.09566 h -1.36701 l -7.8165,-23.20607 -3.77578,22.7651 h -5.63316 l 5.57813,-34.5059 h 4.15607 l 8.63776,23.09601 8.25712,-23.09601 h 4.21111 l 4.9777,34.5059 h -5.63351 z"
         style="fill:#ffffff;fill-opacity:1;fill-rule:nonzero;stroke:none;stroke-width:0.28222224"
         id="path68"
         inkscape:connector-curvature="0" />
      <g
         style="fill:#ffffff;fill-opacity:1"
         id="g3643"
         transform="matrix(0.28222223,0,0,0.28222223,468.97987,687.67808)">
        <path
           inkscape:connector-curvature="0"
           id="path3610"
           d="m 220,171.73828 a 2.5002502,2.5002502 0 0 0 -2.5,2.5 v 13.23633 a 2.5002502,2.5002502 0 0 0 2.5,2.5 c 8.13277,0 16.07577,0.81975 23.74609,2.37305 7.66395,1.55457 15.06658,3.84874 22.10938,6.79882 0.88108,0.36942 1.75517,0.74895 2.625,1.13868 0.86987,0.38975 1.73542,0.78943 2.59375,1.19922 0.85835,0.40979 1.71006,0.83016 2.55664,1.25976 0.84657,0.4296 1.68697,0.86922 2.52148,1.31836 0.83453,0.44915 1.66221,0.90657 2.48438,1.375 a 2.5002502,2.5002502 0 1 0 2.47656,-4.34375 c -0.85711,-0.48833 -1.72186,-0.96734 -2.5918,-1.43555 -0.86993,-0.4682 -1.74643,-0.92522 -2.6289,-1.37304 -0.88248,-0.44782 -1.76935,-0.88534 -2.66406,-1.3125 -0.89474,-0.42717 -1.79648,-0.84378 -2.70313,-1.25 -0.90667,-0.40624 -1.81998,-0.80248 -2.73828,-1.1875 -7.3422,-3.0755 -15.05832,-5.46747 -23.04688,-7.08789 -7.1978,-1.45773 -14.65006,-2.19545 -22.24023,-2.34766 v -8.23633 c 8.17563,0.15267 16.19331,0.94333 23.93555,2.51563 a 2.5002502,2.5002502 0 0 0 0.002,0 c 8.53884,1.73043 16.775,4.28329 24.62305,7.57031 7.84372,3.28674 15.29858,7.30763 22.27929,11.97851 6.97807,4.67294 13.47689,9.98799 19.41407,15.86719 5.93064,5.87904 11.30149,12.31917 16.00976,19.23047 a 2.5002502,2.5002502 0 0 0 0.002,0.002 c 4.71416,6.90787 8.77462,14.29409 12.08985,22.0625 a 2.5004674,2.5004674 0 0 0 4.59961,-1.96289 c -3.44442,-8.07113 -7.66339,-15.74254 -12.5586,-22.91601 l -0.002,-0.002 C 328.00369,224.03 322.42887,217.3438 316.27344,211.24219 a 2.5002502,2.5002502 0 0 0 -0.002,0 c -6.16281,-6.10264 -12.9065,-11.61912 -20.14843,-16.46875 a 2.5002502,2.5002502 0 0 0 -0.002,0 c -7.24638,-4.84878 -14.98565,-9.02329 -23.1289,-12.43555 -8.14638,-3.41196 -16.69756,-6.06312 -25.56055,-7.85937 h -0.002 C 238.56574,172.67856 229.39001,171.73828 220,171.73828 Z"
           style="color:#000000;font-style:normal;font-variant:normal;font-weight:normal;font-stretch:normal;font-size:medium;line-height:normal;font-family:sans-serif;text-indent:0;text-align:start;text-decoration:none;text-decoration-line:none;text-decoration-style:solid;text-decoration-color:#000000;letter-spacing:normal;word-spacing:normal;text-transform:none;writing-mode:lr-tb;direction:ltr;baseline-shift:baseline;text-anchor:start;white-space:normal;clip-rule:nonzero;display:inline;overflow:visible;visibility:visible;opacity:1;isolation:auto;mix-blend-mode:normal;color-interpolation:sRGB;color-interpolation-filters:linearRGB;solid-color:#000000;solid-opacity:1;fill:#ffffff;fill-opacity:1;fill-rule:nonzero;stroke:none;stroke-width:5.00000048;stroke-linecap:round;stroke-linejoin:round;stroke-miterlimit:4;stroke-dasharray:none;stroke-dashoffset:0;stroke-opacity:1;color-rendering:auto;image-rendering:auto;shape-rendering:auto;text-rendering:auto;enable-background:accumulate" />
        <g
           style="fill:#ffffff;fill-opacity:1"
           transform="matrix(1.25,0,0,1.25,-343.95,-1301.2356)"
           id="g78">
          <path
             inkscape:connector-curvature="0"
             id="path80"
             d="m 503.08594,1200.3164 c -3.25119,0 -5.92969,2.6785 -5.92969,5.9297 0,3.2492 2.67604,5.9297 5.92969,5.9297 3.25164,0 5.92969,-2.6781 5.92968,-5.9297 0,-3.2537 -2.6805,-5.9297 -5.92968,-5.9297 z m 0,4 c 1.08682,0 1.92969,0.8393 1.92968,1.9297 0,1.0844 -0.84532,1.9297 -1.92968,1.9297 -1.09036,0 -1.92969,-0.8429 -1.92969,-1.9297 0,-1.0928 0.83688,-1.9297 1.92969,-1.9297 z"
             style="color:#000000;font-style:normal;font-variant:normal;font-weight:normal;font-stretch:normal;font-size:medium;line-height:normal;font-family:sans-serif;text-indent:0;text-align:start;text-decoration:none;text-decoration-line:none;text-decoration-style:solid;text-decoration-color:#000000;letter-spacing:normal;word-spacing:normal;text-transform:none;writing-mode:lr-tb;direction:ltr;baseline-shift:baseline;text-anchor:start;white-space:normal;clip-rule:nonzero;display:inline;overflow:visible;visibility:visible;opacity:1;isolation:auto;mix-blend-mode:normal;color-interpolation:sRGB;color-interpolation-filters:linearRGB;solid-color:#000000;solid-opacity:1;fill:#ffffff;fill-opacity:1;fill-rule:nonzero;stroke:none;stroke-width:4;stroke-linecap:round;stroke-linejoin:round;stroke-miterlimit:4;stroke-dasharray:none;stroke-dashoffset:0;stroke-opacity:1;color-rendering:auto;image-rendering:auto;shape-rendering:auto;text-rendering:auto;enable-background:accumulate" />
        </g>
      </g>
      <g
         style="fill:#ffffff;fill-opacity:1"
         id="g3636"
         transform="matrix(0.28222223,0,0,0.28222223,468.97987,687.67808)">
        <path
           inkscape:connector-curvature="0"
           id="path3604"
           d="m 220,198.21875 c -1.88755,0 -3.76446,0.0468 -5.62891,0.14063 -1.86444,0.0938 -3.71573,0.23277 -5.55468,0.41796 -1.83896,0.18521 -3.66542,0.41721 -5.47657,0.69141 -0.4526,0.0685 -0.90411,0.13875 -1.35546,0.21289 a 2.5002502,2.5002502 0 1 0 0.81054,4.93359 c 0.43015,-0.0707 0.8605,-0.13764 1.29297,-0.20312 1.72916,-0.26178 3.47247,-0.48135 5.22852,-0.6582 1.75604,-0.17685 3.52576,-0.31081 5.30664,-0.40039 1.78087,-0.0896 3.57326,-0.13477 5.37695,-0.13477 7.21477,0 14.25522,0.72591 21.05078,2.10352 6.80195,1.37886 13.35748,3.40743 19.60352,6.02539 6.24741,2.61854 12.18642,5.81957 17.74023,9.53906 5.55541,3.71854 10.72879,7.9545 15.45508,12.63281 4.72701,4.68278 8.99991,9.8089 12.75195,15.31055 3.75208,5.5029 6.98465,11.38023 9.625,17.5664 a 2.5002502,2.5002502 0 0 0 3.26367,1.32422 l 12.31446,-5.15625 a 2.5002502,2.5002502 0 0 0 1.33398,-3.28711 c -3.10704,-7.27509 -6.9104,-14.19548 -11.32226,-20.66601 -2.20844,-3.23837 -4.56926,-6.36329 -7.07227,-9.36719 -0.31287,-0.37548 -0.62799,-0.74942 -0.94531,-1.12109 -0.31729,-0.37164 -0.6353,-0.74155 -0.95703,-1.10938 -0.3217,-0.36778 -0.64656,-0.73372 -0.97266,-1.09765 a 2.5007114,2.5007114 0 0 0 -3.72461,3.33789 c 0.31274,0.34902 0.62499,0.69991 0.93359,1.05273 0.30855,0.35275 0.6136,0.706 0.91797,1.0625 0.30435,0.35647 0.60812,0.71603 0.90821,1.07617 2.40073,2.88116 4.66344,5.8789 6.78125,8.98438 3.76016,5.51474 6.97587,11.41339 9.7539,17.54297 l -7.70312,3.22461 c -2.57085,-5.65507 -5.5349,-11.09585 -9.00391,-16.1836 -3.93295,-5.76691 -8.41029,-11.14023 -13.36328,-16.04687 -4.95093,-4.90081 -10.37167,-9.33761 -16.19336,-13.23438 -5.82119,-3.89855 -12.0428,-7.25278 -18.58789,-9.99609 -6.54646,-2.74388 -13.41742,-4.87 -20.54297,-6.31445 -7.11944,-1.44326 -14.49469,-2.20313 -22.04492,-2.20313 z"
           style="color:#000000;font-style:normal;font-variant:normal;font-weight:normal;font-stretch:normal;font-size:medium;line-height:normal;font-family:sans-serif;text-indent:0;text-align:start;text-decoration:none;text-decoration-line:none;text-decoration-style:solid;text-decoration-color:#000000;letter-spacing:normal;word-spacing:normal;text-transform:none;writing-mode:lr-tb;direction:ltr;baseline-shift:baseline;text-anchor:start;white-space:normal;clip-rule:nonzero;display:inline;overflow:visible;visibility:visible;opacity:1;isolation:auto;mix-blend-mode:normal;color-interpolation:sRGB;color-interpolation-filters:linearRGB;solid-color:#000000;solid-opacity:1;fill:#ffffff;fill-opacity:1;fill-rule:nonzero;stroke:none;stroke-width:5.00000048;stroke-linecap:round;stroke-linejoin:round;stroke-miterlimit:4;stroke-dasharray:none;stroke-dashoffset:0;stroke-opacity:1;color-rendering:auto;image-rendering:auto;shape-rendering:auto;text-rendering:auto;enable-background:accumulate" />
        <g
           style="fill:#ffffff;fill-opacity:1"
           transform="matrix(1.25,0,0,1.25,-343.95,-1301.2356)"
           id="g82">
          <path
             inkscape:connector-curvature="0"
             id="path84"
             d="m 519.51562,1214.2461 c -3.25118,0 -5.92968,2.6785 -5.92968,5.9297 0,3.2492 2.6785,5.9258 5.92968,5.9258 3.24919,0 5.92579,-2.6773 5.92579,-5.9258 0,-3.2506 -2.6766,-5.9297 -5.92579,-5.9297 z m 0,4 c 1.08682,0 1.92579,0.8363 1.92579,1.9297 0,1.0874 -0.83897,1.9258 -1.92579,1.9258 -1.09281,0 -1.92968,-0.839 -1.92968,-1.9258 0,-1.0928 0.83687,-1.9297 1.92968,-1.9297 z"
             style="color:#000000;font-style:normal;font-variant:normal;font-weight:normal;font-stretch:normal;font-size:medium;line-height:normal;font-family:sans-serif;text-indent:0;text-align:start;text-decoration:none;text-decoration-line:none;text-decoration-style:solid;text-decoration-color:#000000;letter-spacing:normal;word-spacing:normal;text-transform:none;writing-mode:lr-tb;direction:ltr;baseline-shift:baseline;text-anchor:start;white-space:normal;clip-rule:nonzero;display:inline;overflow:visible;visibility:visible;opacity:1;isolation:auto;mix-blend-mode:normal;color-interpolation:sRGB;color-interpolation-filters:linearRGB;solid-color:#000000;solid-opacity:1;fill:#ffffff;fill-opacity:1;fill-rule:nonzero;stroke:none;stroke-width:4;stroke-linecap:round;stroke-linejoin:round;stroke-miterlimit:4;stroke-dasharray:none;stroke-dashoffset:0;stroke-opacity:1;color-rendering:auto;image-rendering:auto;shape-rendering:auto;text-rendering:auto;enable-background:accumulate" />
        </g>
        <g
           style="fill:#ffffff;fill-opacity:1"
           transform="matrix(1.25,0,0,1.25,-343.95,-1301.2356)"
           id="g86">
          <path
             inkscape:connector-curvature="0"
             id="path88"
             d="m 432.72656,1198.1758 c -3.24918,0 -5.92578,2.6766 -5.92578,5.9258 0,3.2506 2.6766,5.9296 5.92578,5.9296 3.25069,0 5.92969,-2.679 5.92969,-5.9296 0,-3.2492 -2.679,-5.9258 -5.92969,-5.9258 z m 0,4 c 1.09132,0 1.92969,0.8389 1.92969,1.9258 0,1.0913 -0.83837,1.9296 -1.92969,1.9296 -1.08682,0 -1.92578,-0.8383 -1.92578,-1.9296 0,-1.0869 0.83896,-1.9258 1.92578,-1.9258 z"
             style="color:#000000;font-style:normal;font-variant:normal;font-weight:normal;font-stretch:normal;font-size:medium;line-height:normal;font-family:sans-serif;text-indent:0;text-align:start;text-decoration:none;text-decoration-line:none;text-decoration-style:solid;text-decoration-color:#000000;letter-spacing:normal;word-spacing:normal;text-transform:none;writing-mode:lr-tb;direction:ltr;baseline-shift:baseline;text-anchor:start;white-space:normal;clip-rule:nonzero;display:inline;overflow:visible;visibility:visible;opacity:1;isolation:auto;mix-blend-mode:normal;color-interpolation:sRGB;color-interpolation-filters:linearRGB;solid-color:#000000;solid-opacity:1;fill:#ffffff;fill-opacity:1;fill-rule:nonzero;stroke:none;stroke-width:4;stroke-linecap:round;stroke-linejoin:round;stroke-miterlimit:4;stroke-dasharray:none;stroke-dashoffset:0;stroke-opacity:1;color-rendering:auto;image-rendering:auto;shape-rendering:auto;text-rendering:auto;enable-background:accumulate" />
        </g>
      </g>
      <g
         style="fill:#ffffff;fill-opacity:1;stroke:#00ff00"
         id="g3624"
         transform="matrix(0.28222223,0,0,0.28222223,468.97987,687.67808)">
        <path
           inkscape:connector-curvature="0"
           id="path76"
           d="m 157.16016,218.48633 a 2.5002502,2.5002502 0 0 0 -1.56836,0.49414 c -0.35435,0.25602 -0.70742,0.51327 -1.0586,0.77344 -1.40456,1.04052 -2.78157,2.11417 -4.13281,3.21875 -2.70247,2.20912 -5.29595,4.54307 -7.76953,6.99414 -4.95158,4.90651 -9.43033,10.27996 -13.36328,16.04687 -3.93987,5.76925 -7.3222,11.93182 -10.0957,18.41797 a 2.5002502,2.5002502 0 0 0 -0.002,0.002 c -2.76951,6.48878 -4.91987,13.29914 -6.3789,20.35743 a 2.5002502,2.5002502 0 0 0 0,0.002 c -1.45505,7.06391 -2.22071,14.37337 -2.22071,21.85351 0,7.48498 0.76563,14.79271 2.22071,21.85547 a 2.5005148,2.5005148 0 1 0 4.89843,-1.00781 c -1.38742,-6.73442 -2.11914,-13.70332 -2.11914,-20.84766 0,-7.13927 0.73169,-14.108 2.11914,-20.84375 l -0.002,0.002 c 1.39084,-6.72837 3.44189,-13.22026 6.08203,-19.40625 v -0.002 c 2.64601,-6.1877 5.87225,-12.06377 9.62891,-17.56445 a 2.5002502,2.5002502 0 0 0 0,-0.002 c 3.75204,-5.50165 8.02603,-10.62765 12.75195,-15.31055 2.36018,-2.33869 4.83468,-4.56727 7.41406,-6.67578 1.2897,-1.05426 2.60464,-2.07907 3.94532,-3.07227 0.33512,-0.24827 0.67149,-0.49388 1.00976,-0.73828 a 2.5002502,2.5002502 0 0 0 -1.35937,-4.54687 z"
           style="color:#000000;font-style:normal;font-variant:normal;font-weight:normal;font-stretch:normal;font-size:medium;line-height:normal;font-family:sans-serif;text-indent:0;text-align:start;text-decoration:none;text-decoration-line:none;text-decoration-style:solid;text-decoration-color:#000000;letter-spacing:normal;word-spacing:normal;text-transform:none;writing-mode:lr-tb;direction:ltr;baseline-shift:baseline;text-anchor:start;white-space:normal;clip-rule:nonzero;display:inline;overflow:visible;visibility:visible;opacity:1;isolation:auto;mix-blend-mode:normal;color-interpolation:sRGB;color-interpolation-filters:linearRGB;solid-color:#000000;solid-opacity:1;fill:#ffffff;fill-opacity:1;fill-rule:nonzero;stroke:none;stroke-width:5.00000048;stroke-linecap:round;stroke-linejoin:round;stroke-miterlimit:4;stroke-dasharray:none;stroke-dashoffset:0;stroke-opacity:1;color-rendering:auto;image-rendering:auto;shape-rendering:auto;text-rendering:auto;enable-background:accumulate" />
        <g
           style="fill:#ffffff;fill-opacity:1;stroke:#00ff00"
           transform="matrix(1.25,0,0,1.25,-343.95,-1301.2356)"
           id="g90">
          <path
             inkscape:connector-curvature="0"
             id="path92"
             d="m 404.51562,1209.2461 c -3.25118,0 -5.92968,2.6785 -5.92968,5.9297 0,3.2492 2.6785,5.9258 5.92968,5.9258 3.24919,0 5.92579,-2.6773 5.92579,-5.9258 0,-3.2506 -2.6766,-5.9297 -5.92579,-5.9297 z m 0,4 c 1.08682,0 1.92579,0.8363 1.92579,1.9297 0,1.0874 -0.83897,1.9258 -1.92579,1.9258 -1.09281,0 -1.92968,-0.839 -1.92968,-1.9258 0,-1.0928 0.83687,-1.9297 1.92968,-1.9297 z"
             style="color:#000000;font-style:normal;font-variant:normal;font-weight:normal;font-stretch:normal;font-size:medium;line-height:normal;font-family:sans-serif;text-indent:0;text-align:start;text-decoration:none;text-decoration-line:none;text-decoration-style:solid;text-decoration-color:#000000;letter-spacing:normal;word-spacing:normal;text-transform:none;writing-mode:lr-tb;direction:ltr;baseline-shift:baseline;text-anchor:start;white-space:normal;clip-rule:nonzero;display:inline;overflow:visible;visibility:visible;opacity:1;isolation:auto;mix-blend-mode:normal;color-interpolation:sRGB;color-interpolation-filters:linearRGB;solid-color:#000000;solid-opacity:1;fill:#ffffff;fill-opacity:1;fill-rule:nonzero;stroke:none;stroke-width:4;stroke-linecap:round;stroke-linejoin:round;stroke-miterlimit:4;stroke-dasharray:none;stroke-dashoffset:0;stroke-opacity:1;color-rendering:auto;image-rendering:auto;shape-rendering:auto;text-rendering:auto;enable-background:accumulate" />
        </g>
      </g>
      <g
         style="fill:#ffffff;fill-opacity:1;stroke:#00ff00"
         id="g3631"
         transform="matrix(0.28222223,0,0,0.28222223,468.97987,687.67808)">
        <path
           inkscape:connector-curvature="0"
           id="path72"
           d="m 106.06836,265.89258 a 2.5002502,2.5002502 0 0 0 -2.41016,1.72656 c -1.56144,4.58056 -2.74384,9.10053 -3.892575,14.25977 a 2.5002502,2.5002502 0 0 0 -0.04492,0.16015 c -0.0041,0.0184 -0.0096,0.0324 -0.01367,0.0508 a 2.5002502,2.5002502 0 0 0 -0.0059,0.0352 2.5002502,2.5002502 0 0 0 -0.04492,0.29688 c -1.601467,7.83462 -2.453125,15.93503 -2.453125,24.2246 0,8.39746 0.857449,16.60026 2.498047,24.5254 a 2.5002502,2.5002502 0 1 0 4.896483,-1.01368 c -1.57191,-7.59328 -2.39454,-15.45459 -2.39454,-23.51172 0,-8.04865 0.822,-15.9078 2.39258,-23.49804 6.7e-4,-0.003 0.001,-0.007 0.002,-0.01 1.13747,-5.12912 2.28566,-9.48451 3.79296,-13.90625 a 2.5002502,2.5002502 0 0 0 -2.32226,-3.33984 z"
           style="color:#000000;font-style:normal;font-variant:normal;font-weight:normal;font-stretch:normal;font-size:medium;line-height:normal;font-family:sans-serif;text-indent:0;text-align:start;text-decoration:none;text-decoration-line:none;text-decoration-style:solid;text-decoration-color:#000000;letter-spacing:normal;word-spacing:normal;text-transform:none;writing-mode:lr-tb;direction:ltr;baseline-shift:baseline;text-anchor:start;white-space:normal;clip-rule:nonzero;display:inline;overflow:visible;visibility:visible;opacity:1;isolation:auto;mix-blend-mode:normal;color-interpolation:sRGB;color-interpolation-filters:linearRGB;solid-color:#000000;solid-opacity:1;fill:#ffffff;fill-opacity:1;fill-rule:nonzero;stroke:none;stroke-width:5.00000048;stroke-linecap:round;stroke-linejoin:round;stroke-miterlimit:4;stroke-dasharray:none;stroke-dashoffset:0;stroke-opacity:1;color-rendering:auto;image-rendering:auto;shape-rendering:auto;text-rendering:auto;enable-background:accumulate" />
        <g
           style="fill:#ffffff;fill-opacity:1;stroke:#00ff00"
           transform="matrix(1.25,0,0,1.25,-343.95,-1301.2356)"
           id="g94">
          <path
             inkscape:connector-curvature="0"
             id="path96"
             d="m 361.65625,1244.9609 c -3.24918,0 -5.92969,2.6748 -5.92969,5.9258 0,3.2531 2.68112,5.9297 5.92969,5.9297 3.25058,0 5.92969,-2.6785 5.92969,-5.9297 0,-3.2492 -2.6785,-5.9258 -5.92969,-5.9258 z m 0,4 c 1.09281,0 1.92969,0.839 1.92969,1.9258 0,1.0928 -0.83627,1.9297 -1.92969,1.9297 -1.08743,0 -1.92969,-0.8387 -1.92969,-1.9297 0,-1.085 0.84287,-1.9258 1.92969,-1.9258 z"
             style="color:#000000;font-style:normal;font-variant:normal;font-weight:normal;font-stretch:normal;font-size:medium;line-height:normal;font-family:sans-serif;text-indent:0;text-align:start;text-decoration:none;text-decoration-line:none;text-decoration-style:solid;text-decoration-color:#000000;letter-spacing:normal;word-spacing:normal;text-transform:none;writing-mode:lr-tb;direction:ltr;baseline-shift:baseline;text-anchor:start;white-space:normal;clip-rule:nonzero;display:inline;overflow:visible;visibility:visible;opacity:1;isolation:auto;mix-blend-mode:normal;color-interpolation:sRGB;color-interpolation-filters:linearRGB;solid-color:#000000;solid-opacity:1;fill:#ffffff;fill-opacity:1;fill-rule:nonzero;stroke:none;stroke-width:4;stroke-linecap:round;stroke-linejoin:round;stroke-miterlimit:4;stroke-dasharray:none;stroke-dashoffset:0;stroke-opacity:1;color-rendering:auto;image-rendering:auto;shape-rendering:auto;text-rendering:auto;enable-background:accumulate" />
        </g>
      </g>
      <g
         style="fill:#ffffff;fill-opacity:1"
         id="g3648"
         transform="matrix(0.28222223,0,0,0.28222223,468.97987,687.67808)">
        <path
           inkscape:connector-curvature="0"
           id="path3602"
           d="m 324.70312,282.76367 a 2.5002502,2.5002502 0 0 0 -2.39453,3.03906 c 1.39095,6.73492 2.1211,13.70448 2.1211,20.84375 0,7.14434 -0.73018,14.11211 -2.1211,20.84571 -0.34806,1.68267 -0.7369,3.35033 -1.16601,5.00195 -0.4291,1.65161 -0.89808,3.2876 -1.40625,4.90625 -0.50818,1.61866 -1.05536,3.21902 -1.64063,4.80273 a 2.5002502,2.5002502 0 1 0 4.68946,1.73438 c 0.61395,-1.66136 1.18762,-3.34303 1.7207,-5.04102 0.53307,-1.69798 1.0245,-3.41399 1.47461,-5.14648 0.45011,-1.73246 0.85956,-3.48132 1.22461,-5.24609 1.45908,-7.06359 2.22461,-14.37245 2.22461,-21.85743 0,-7.48014 -0.76555,-14.78877 -2.22461,-21.85351 a 2.5002502,2.5002502 0 0 0 -2.50196,-2.0293 z"
           style="color:#000000;font-style:normal;font-variant:normal;font-weight:normal;font-stretch:normal;font-size:medium;line-height:normal;font-family:sans-serif;text-indent:0;text-align:start;text-decoration:none;text-decoration-line:none;text-decoration-style:solid;text-decoration-color:#000000;letter-spacing:normal;word-spacing:normal;text-transform:none;writing-mode:lr-tb;direction:ltr;baseline-shift:baseline;text-anchor:start;white-space:normal;clip-rule:nonzero;display:inline;overflow:visible;visibility:visible;opacity:1;isolation:auto;mix-blend-mode:normal;color-interpolation:sRGB;color-interpolation-filters:linearRGB;solid-color:#000000;solid-opacity:1;fill:#ffffff;fill-opacity:1;fill-rule:nonzero;stroke:none;stroke-width:5.00000048;stroke-linecap:round;stroke-linejoin:round;stroke-miterlimit:4;stroke-dasharray:none;stroke-dashoffset:0;stroke-opacity:1;color-rendering:auto;image-rendering:auto;shape-rendering:auto;text-rendering:auto;enable-background:accumulate" />
        <g
           style="fill:#ffffff;fill-opacity:1"
           transform="matrix(1.25,0,0,1.25,-343.95,-1301.2356)"
           id="g98">
          <path
             inkscape:connector-curvature="0"
             id="path100"
             d="m 529.51562,1313.1758 c -3.25118,0 -5.92968,2.6766 -5.92968,5.9258 0,3.2506 2.6785,5.9296 5.92968,5.9296 3.24919,0 5.92579,-2.6796 5.92579,-5.9296 0,-3.2486 -2.6766,-5.9258 -5.92579,-5.9258 z m 0,4 c 1.08682,0 1.92579,0.8383 1.92579,1.9258 0,1.0919 -0.83897,1.9296 -1.92579,1.9296 -1.09281,0 -1.92968,-0.8383 -1.92968,-1.9296 0,-1.0869 0.83687,-1.9258 1.92968,-1.9258 z"
             style="color:#000000;font-style:normal;font-variant:normal;font-weight:normal;font-stretch:normal;font-size:medium;line-height:normal;font-family:sans-serif;text-indent:0;text-align:start;text-decoration:none;text-decoration-line:none;text-decoration-style:solid;text-decoration-color:#000000;letter-spacing:normal;word-spacing:normal;text-transform:none;writing-mode:lr-tb;direction:ltr;baseline-shift:baseline;text-anchor:start;white-space:normal;clip-rule:nonzero;display:inline;overflow:visible;visibility:visible;opacity:1;isolation:auto;mix-blend-mode:normal;color-interpolation:sRGB;color-interpolation-filters:linearRGB;solid-color:#000000;solid-opacity:1;fill:#ffffff;fill-opacity:1;fill-rule:nonzero;stroke:none;stroke-width:4;stroke-linecap:round;stroke-linejoin:round;stroke-miterlimit:4;stroke-dasharray:none;stroke-dashoffset:0;stroke-opacity:1;color-rendering:auto;image-rendering:auto;shape-rendering:auto;text-rendering:auto;enable-background:accumulate" />
        </g>
      </g>
      <g
         style="fill:#ffffff;fill-opacity:1"
         id="g3660"
         transform="matrix(0.28222223,0,0,0.28222223,468.97987,687.67808)">
        <path
           inkscape:connector-curvature="0"
           id="path3600"
           d="m 120.17969,370.77734 a 2.5002502,2.5002502 0 0 0 -1.32031,0.41993 l -11.08204,7.40234 a 2.5002502,2.5002502 0 0 0 -0.67773,3.48828 c 4.89541,7.17852 10.46732,13.86296 16.625,19.9668 a 2.5002502,2.5002502 0 0 0 0,0.002 c 6.16193,6.09671 12.90745,11.6177 20.1543,16.4668 7.24166,4.85009 14.98223,9.02378 23.12304,12.43554 a 2.5002502,2.5002502 0 0 0 0.002,0 c 8.14723,3.4118 16.6951,6.06234 25.55859,7.85743 8.86497,1.80157 18.04214,2.74218 27.4375,2.74218 9.39045,0 18.56667,-0.94061 27.43164,-2.74218 8.86344,-1.79508 17.41437,-4.44555 25.56055,-7.85743 8.14305,-3.41217 15.8822,-7.58528 23.1289,-12.43554 a 2.5004882,2.5004882 0 1 0 -2.78125,-4.15625 c -6.98079,4.67229 -14.43484,8.69146 -22.27929,11.97851 -7.84825,3.2871 -16.08466,5.8412 -24.62305,7.57032 a 2.5002502,2.5002502 0 0 0 -0.002,0.002 c -8.53753,1.73503 -17.3785,2.64062 -26.43555,2.64062 -9.06214,0 -17.90388,-0.90559 -26.44141,-2.64062 a 2.5002502,2.5002502 0 0 0 -0.002,-0.002 c -8.53773,-1.72899 -16.77191,-4.28347 -24.62109,-7.57032 h -0.002 c -7.84275,-3.28697 -15.29872,-7.30701 -22.27343,-11.97851 a 2.5002502,2.5002502 0 0 0 -0.002,0 c -6.97989,-4.67047 -13.47652,-9.98884 -19.41406,-15.86328 l -0.002,-0.002 c -5.33354,-5.28713 -10.13407,-11.08395 -14.49024,-17.21289 l 6.92383,-4.625 c 4.06081,5.70304 8.53172,11.10279 13.50195,16.02539 a 2.5002502,2.5002502 0 0 0 0,0.002 c 5.55693,5.50113 11.63571,10.47816 18.17188,14.84961 6.53294,4.37015 13.50997,8.13812 20.85742,11.21875 a 2.5002502,2.5002502 0 0 0 0.002,0.002 c 7.34557,3.07477 15.05582,5.46663 23.05079,7.08594 7.98975,1.62066 16.26873,2.46875 24.74023,2.46875 a 2.5002502,2.5002502 0 0 0 2.5,-2.5 v -10.86329 c 6.66975,-0.14982 13.21936,-0.79518 19.54297,-2.07812 7.12611,-1.44331 13.99871,-3.57262 20.54492,-6.31641 6.54638,-2.74258 12.76827,-6.09974 18.58789,-9.99218 a 2.5002502,2.5002502 0 0 0 0,-0.002 c 0.72765,-0.48721 1.44907,-0.98244 2.16406,-1.48633 0.71497,-0.50388 1.42291,-1.0168 2.125,-1.5371 0.70206,-0.52028 1.39901,-1.0476 2.08789,-1.58399 0.68885,-0.53638 1.37145,-1.08059 2.04688,-1.63281 0.67541,-0.55221 1.34222,-1.11195 2.00391,-1.67969 a 2.5002502,2.5002502 0 1 0 -3.25586,-3.79492 c -0.63164,0.54196 -1.26932,1.07638 -1.91407,1.60351 -0.64473,0.52713 -1.29553,1.04656 -1.95312,1.5586 -0.65758,0.51201 -1.32203,1.01703 -1.99219,1.51367 -0.67013,0.49662 -1.3468,0.98384 -2.0293,1.46484 -0.68248,0.48098 -1.36991,0.95488 -2.06445,1.41993 -5.55537,3.71569 -11.49411,6.92031 -17.74023,9.53711 -6.24629,2.61807 -12.80213,4.64979 -19.60352,6.02734 -6.795,1.3787 -13.83573,2.10352 -21.05078,2.10351 a 2.5002502,2.5002502 0 0 0 -2.5,2.5 v 10.61329 c -7.25735,-0.15047 -14.37819,-0.85104 -21.24609,-2.24414 -7.66854,-1.55307 -15.06512,-3.84677 -22.11329,-6.79688 l -0.002,-0.002 c -7.04666,-2.95469 -13.73897,-6.56823 -20.00781,-10.76172 a 2.5002502,2.5002502 0 0 0 -0.002,0 c -6.26883,-4.19265 -12.10052,-8.97047 -17.4336,-14.25 -5.33035,-5.27927 -10.15004,-11.06258 -14.38086,-17.26758 a 2.5002502,2.5002502 0 0 0 -2.13476,-1.0918 z"
           style="color:#000000;font-style:normal;font-variant:normal;font-weight:normal;font-stretch:normal;font-size:medium;line-height:normal;font-family:sans-serif;text-indent:0;text-align:start;text-decoration:none;text-decoration-line:none;text-decoration-style:solid;text-decoration-color:#000000;letter-spacing:normal;word-spacing:normal;text-transform:none;writing-mode:lr-tb;direction:ltr;baseline-shift:baseline;text-anchor:start;white-space:normal;clip-rule:nonzero;display:inline;overflow:visible;visibility:visible;opacity:1;isolation:auto;mix-blend-mode:normal;color-interpolation:sRGB;color-interpolation-filters:linearRGB;solid-color:#000000;solid-opacity:1;fill:#ffffff;fill-opacity:1;fill-rule:nonzero;stroke:none;stroke-width:5.00000048;stroke-linecap:round;stroke-linejoin:round;stroke-miterlimit:4;stroke-dasharray:none;stroke-dashoffset:0;stroke-opacity:1;color-rendering:auto;image-rendering:auto;shape-rendering:auto;text-rendering:auto;enable-background:accumulate" />
        <g
           style="fill:#ffffff;fill-opacity:1"
           transform="matrix(1.25,0,0,1.25,-343.95,-1301.2356)"
           id="g102">
          <path
             inkscape:connector-curvature="0"
             id="path104"
             d="m 510.58594,1341.3867 c -3.25303,0 -5.92969,2.6805 -5.92969,5.9297 0,3.2512 2.6785,5.9297 5.92969,5.9297 3.24918,0 5.92969,-2.676 5.92968,-5.9297 0,-3.2516 -2.67866,-5.9297 -5.92968,-5.9297 z m 0,4 c 1.08497,0 1.92969,0.8453 1.92968,1.9297 0,1.0904 -0.84286,1.9297 -1.92968,1.9297 -1.09281,0 -1.92969,-0.8369 -1.92969,-1.9297 0,-1.0868 0.83872,-1.9297 1.92969,-1.9297 z"
             style="color:#000000;font-style:normal;font-variant:normal;font-weight:normal;font-stretch:normal;font-size:medium;line-height:normal;font-family:sans-serif;text-indent:0;text-align:start;text-decoration:none;text-decoration-line:none;text-decoration-style:solid;text-decoration-color:#000000;letter-spacing:normal;word-spacing:normal;text-transform:none;writing-mode:lr-tb;direction:ltr;baseline-shift:baseline;text-anchor:start;white-space:normal;clip-rule:nonzero;display:inline;overflow:visible;visibility:visible;opacity:1;isolation:auto;mix-blend-mode:normal;color-interpolation:sRGB;color-interpolation-filters:linearRGB;solid-color:#000000;solid-opacity:1;fill:#ffffff;fill-opacity:1;fill-rule:nonzero;stroke:none;stroke-width:4;stroke-linecap:round;stroke-linejoin:round;stroke-miterlimit:4;stroke-dasharray:none;stroke-dashoffset:0;stroke-opacity:1;color-rendering:auto;image-rendering:auto;shape-rendering:auto;text-rendering:auto;enable-background:accumulate" />
        </g>
      </g>
      <g
         style="fill:#ffffff;fill-opacity:1"
         id="g3619"
         transform="matrix(0.28222223,0,0,0.28222223,468.97987,687.67808)">
        <path
           inkscape:connector-curvature="0"
           id="path3596"
           d="m 192.97461,174.42969 a 2.5002502,2.5002502 0 0 0 -0.41016,0.0488 c -8.8637,1.79627 -17.41321,4.44704 -25.55664,7.85937 -8.14712,3.41228 -15.88887,7.5863 -23.13086,12.43555 -7.24549,4.84958 -13.98989,10.36648 -20.15234,16.46875 a 2.5002502,2.5002502 0 1 0 3.51758,3.55273 c 5.93718,-5.8792 12.43646,-11.19441 19.41797,-15.86719 6.97551,-4.67081 14.43142,-8.69157 22.27929,-11.97851 7.09084,-2.97126 14.53971,-5.24877 22.20508,-6.95508 l 1.67969,8.07422 c -7.11368,1.595 -14.02961,3.71013 -20.61524,6.4668 a 2.5002502,2.5002502 0 0 0 -0.002,0 c -7.34655,3.08023 -14.32309,6.84261 -20.85742,11.21875 -6.53635,4.37158 -12.61509,9.3525 -18.17188,14.85351 -4.96946,4.9207 -9.44086,10.31848 -13.50195,16.02539 l -9.12305,-6.09375 a 2.5002502,2.5002502 0 0 0 -3.45312,0.66992 c -4.8963,7.17478 -9.108681,14.84554 -12.556641,22.91602 -3.448771,8.07238 -6.123047,16.5488 -7.939453,25.33008 -1.81533,8.78853 -2.765625,17.88 -2.765625,27.1914 0,9.31505 0.950295,18.40678 2.765625,27.19532 1.816406,8.78253 4.490682,17.25769 7.939453,25.33008 a 2.5002502,2.5002502 0 0 0 3.263672,1.32421 l 22.451169,-9.39648 c 2.57311,5.6545 5.53546,11.09655 9.01172,16.18555 3.93275,5.76756 8.41073,11.13811 13.36133,16.04492 4.94731,4.90229 10.37268,9.33702 16.19336,13.23437 a 2.5002502,2.5002502 0 0 0 0.002,0.002 c 5.82058,3.89222 12.03946,7.24955 18.58594,9.99218 1.63657,0.68596 3.2946,1.3334 4.9707,1.94141 1.67611,0.608 3.37081,1.17724 5.08399,1.70508 0.8566,0.26392 1.71664,0.51631 2.58203,0.75976 a 2.5002502,2.5002502 0 1 0 1.35547,-4.8125 c -0.82583,-0.23232 -1.64747,-0.47472 -2.46485,-0.72656 -1.6348,-0.50368 -3.25223,-1.04681 -4.85156,-1.62695 -1.59932,-0.58016 -3.18064,-1.19706 -4.74219,-1.85156 -6.24601,-2.61675 -12.18331,-5.8212 -17.74023,-9.53711 -5.55682,-3.72069 -10.73489,-7.95559 -15.45508,-12.63282 -4.72625,-4.68444 -9.00007,-9.80988 -12.75195,-15.3125 -3.75687,-5.49977 -6.98277,-11.3781 -9.62891,-17.5664 a 2.5002502,2.5002502 0 0 0 -3.26562,-1.32227 l -22.224613,9.30078 C 95.417092,347.80054 93.077825,340.45847 91.5,332.83008 v -0.002 c -1.746918,-8.45797 -2.662109,-17.20761 -2.662109,-26.18164 0,-8.97091 0.914939,-17.72113 2.662109,-26.17968 1.748593,-8.45344 4.321895,-16.60896 7.640625,-24.37696 2.992265,-7.00386 6.663455,-13.64068 10.794925,-19.95117 l 8.92383,5.96094 a 2.5002502,2.5002502 0 0 0 3.45507,-0.67188 c 4.23017,-6.21011 9.05013,-11.98915 14.38086,-17.26757 5.33321,-5.27968 11.16495,-10.05747 17.4336,-14.25 a 2.5002502,2.5002502 0 0 0 0.002,-0.002 c 6.26769,-4.19756 12.95997,-7.8066 20.00781,-10.76172 7.04864,-2.95047 14.44537,-5.24429 22.11524,-6.79882 a 2.5002502,2.5002502 0 0 0 1.95117,-2.95899 l -2.69531,-12.96875 a 2.5002502,2.5002502 0 0 0 -2.53516,-1.99023 z"
           style="color:#000000;font-style:normal;font-variant:normal;font-weight:normal;font-stretch:normal;font-size:medium;line-height:normal;font-family:sans-serif;text-indent:0;text-align:start;text-decoration:none;text-decoration-line:none;text-decoration-style:solid;text-decoration-color:#000000;letter-spacing:normal;word-spacing:normal;text-transform:none;writing-mode:lr-tb;direction:ltr;baseline-shift:baseline;text-anchor:start;white-space:normal;clip-rule:nonzero;display:inline;overflow:visible;visibility:visible;opacity:1;isolation:auto;mix-blend-mode:normal;color-interpolation:sRGB;color-interpolation-filters:linearRGB;solid-color:#000000;solid-opacity:1;fill:#ffffff;fill-opacity:1;fill-rule:nonzero;stroke:none;stroke-width:5.00000048;stroke-linecap:round;stroke-linejoin:round;stroke-miterlimit:4;stroke-dasharray:none;stroke-dashoffset:0;stroke-opacity:1;color-rendering:auto;image-rendering:auto;shape-rendering:auto;text-rendering:auto;enable-background:accumulate" />
        <g
           style="fill:#ffffff;fill-opacity:1"
           transform="matrix(1.25,0,0,1.25,-343.95,-1301.2356)"
           id="g110">
          <path
             inkscape:connector-curvature="0"
             id="path112"
             d="m 432.37109,1362.8164 c -3.24918,0 -5.92968,2.676 -5.92968,5.9297 0,3.2516 2.67804,5.9297 5.92968,5.9297 3.25164,0 5.92969,-2.6781 5.92969,-5.9297 0,-3.2537 -2.68051,-5.9297 -5.92969,-5.9297 z m 0,4 c 1.08682,0 1.92969,0.8393 1.92969,1.9297 0,1.0844 -0.84533,1.9297 -1.92969,1.9297 -1.08436,0 -1.92968,-0.8453 -1.92968,-1.9297 0,-1.0904 0.84286,-1.9297 1.92968,-1.9297 z"
             style="color:#000000;font-style:normal;font-variant:normal;font-weight:normal;font-stretch:normal;font-size:medium;line-height:normal;font-family:sans-serif;text-indent:0;text-align:start;text-decoration:none;text-decoration-line:none;text-decoration-style:solid;text-decoration-color:#000000;letter-spacing:normal;word-spacing:normal;text-transform:none;writing-mode:lr-tb;direction:ltr;baseline-shift:baseline;text-anchor:start;white-space:normal;clip-rule:nonzero;display:inline;overflow:visible;visibility:visible;opacity:1;isolation:auto;mix-blend-mode:normal;color-interpolation:sRGB;color-interpolation-filters:linearRGB;solid-color:#000000;solid-opacity:1;fill:#ffffff;fill-opacity:1;fill-rule:nonzero;stroke:none;stroke-width:4;stroke-linecap:round;stroke-linejoin:round;stroke-miterlimit:4;stroke-dasharray:none;stroke-dashoffset:0;stroke-opacity:1;color-rendering:auto;image-rendering:auto;shape-rendering:auto;text-rendering:auto;enable-background:accumulate" />
        </g>
      </g>
      <g
         style="fill:#ffffff;fill-opacity:1"
         id="g3653"
         transform="matrix(0.28222223,0,0,0.28222223,468.97987,687.67808)">
        <path
           inkscape:connector-curvature="0"
           id="path3598"
           d="m 350.85938,277.46289 a 2.5002502,2.5002502 0 0 0 -0.41602,0.0488 l -13.0918,2.66992 a 2.5002502,2.5002502 0 0 0 -1.94922,2.95508 c 1.56838,7.59397 2.39063,15.45769 2.39063,23.50976 0,8.05713 -0.82224,15.9177 -2.39063,23.51172 -1.56715,7.59401 -3.87873,14.91549 -6.86132,21.89258 -0.37223,0.87218 -0.75548,1.74027 -1.14844,2.60156 -0.39295,0.86129 -0.79562,1.71634 -1.20899,2.56641 -0.41335,0.85007 -0.83805,1.6947 -1.27148,2.5332 -0.43342,0.8385 -0.8769,1.67144 -1.33008,2.49805 -0.45316,0.8266 -0.91608,1.64657 -1.38867,2.46094 a 2.500732,2.500732 0 0 0 4.32617,2.50976 c 0.49291,-0.84939 0.97457,-1.70418 1.44727,-2.5664 0.47268,-0.86221 0.93653,-1.73077 1.38867,-2.60547 0.45213,-0.8747 0.89299,-1.75575 1.32422,-2.64258 0.43123,-0.88683 0.85173,-1.78106 1.26172,-2.67969 0.40973,-0.89806 0.80909,-1.80144 1.19726,-2.71094 v -0.002 c 3.11206,-7.28024 5.52494,-14.91995 7.16016,-22.84375 1.63661,-7.9244 2.49414,-16.12598 2.49414,-24.52344 0,-7.53067 -0.78712,-14.87796 -2.11133,-22.03906 l 8.19336,-1.67383 c 1.4372,7.69989 2.28711,15.60044 2.28711,23.71289 0,8.97401 -0.91948,17.72458 -2.66797,26.1836 -1.74335,8.45303 -4.31968,16.60834 -7.63867,24.37695 -3.31529,7.76734 -7.37577,15.15474 -12.08985,22.0625 a 2.5002502,2.5002502 0 0 0 -0.002,0.002 c -4.24278,6.22801 -9.09204,12.00838 -14.33594,17.40625 l -7.60937,-7.53906 a 2.5002502,2.5002502 0 0 0 -3.51953,0 c -5.32699,5.27835 -11.16345,10.05501 -17.43164,14.24805 a 2.5002502,2.5002502 0 0 0 -0.002,0 c -6.26339,4.19311 -12.96174,7.80859 -20.00976,10.76367 v -0.002 c -1.76084,0.73758 -3.54394,1.4355 -5.34766,2.08984 -1.80371,0.65434 -3.62864,1.26561 -5.47265,1.83399 -0.46102,0.14209 -0.9233,0.28135 -1.38672,0.41796 -0.46343,0.13662 -0.92678,0.27126 -1.39258,0.40235 -0.46583,0.1311 -0.93422,0.25924 -1.40234,0.38476 a 2.5003245,2.5003245 0 0 0 1.29492,4.83008 c 0.48808,-0.13087 0.97535,-0.26568 1.46094,-0.40234 0.48561,-0.13667 0.96999,-0.27555 1.45312,-0.41797 0.48312,-0.14242 0.96473,-0.28742 1.44531,-0.43555 1.92239,-0.59253 3.82485,-1.23196 5.70508,-1.91406 1.88022,-0.6821 3.73882,-1.40696 5.57422,-2.17578 a 2.5002502,2.5002502 0 0 0 0,-0.002 c 7.34697,-3.08043 14.33027,-6.84775 20.85937,-11.21875 5.84337,-3.90886 11.26255,-8.37077 16.32813,-13.19141 l 7.7793,7.70508 a 2.5002502,2.5002502 0 0 0 3.51953,0 c 6.15516,-6.10262 11.73017,-12.78772 16.62109,-19.9668 l 0.002,-0.002 c 4.8948,-7.17289 9.11247,-14.8452 12.55664,-22.91406 l 0.002,-0.002 c 3.44779,-8.0705 6.12408,-16.54548 7.93554,-25.32812 v -0.002 c 1.81626,-8.78749 2.77149,-17.87829 2.77149,-27.19336 0,-9.31209 -0.95498,-18.40333 -2.77149,-27.1914 a 2.5002502,2.5002502 0 0 0 -2.53124,-1.99219 z"
           style="color:#000000;font-style:normal;font-variant:normal;font-weight:normal;font-stretch:normal;font-size:medium;line-height:normal;font-family:sans-serif;text-indent:0;text-align:start;text-decoration:none;text-decoration-line:none;text-decoration-style:solid;text-decoration-color:#000000;letter-spacing:normal;word-spacing:normal;text-transform:none;writing-mode:lr-tb;direction:ltr;baseline-shift:baseline;text-anchor:start;white-space:normal;clip-rule:nonzero;display:inline;overflow:visible;visibility:visible;opacity:1;isolation:auto;mix-blend-mode:normal;color-interpolation:sRGB;color-interpolation-filters:linearRGB;solid-color:#000000;solid-opacity:1;fill:#ffffff;fill-opacity:1;fill-rule:nonzero;stroke:none;stroke-width:5.00000048;stroke-linecap:round;stroke-linejoin:round;stroke-miterlimit:4;stroke-dasharray:none;stroke-dashoffset:0;stroke-opacity:1;color-rendering:auto;image-rendering:auto;shape-rendering:auto;text-rendering:auto;enable-background:accumulate" />
        <g
           style="fill:#ffffff;fill-opacity:1"
           transform="matrix(1.25,0,0,1.25,-343.95,-1301.2356)"
           id="g106">
          <path
             inkscape:connector-curvature="0"
             id="path108"
             d="m 531.65625,1331.0312 c -3.24918,0 -5.92969,2.6767 -5.92969,5.9297 0,3.2511 2.68051,5.9258 5.92969,5.9258 3.25119,0 5.92969,-2.6766 5.92969,-5.9258 0,-3.2512 -2.6785,-5.9297 -5.92969,-5.9297 z m 0,4 c 1.09281,0 1.92969,0.8369 1.92969,1.9297 0,1.0869 -0.83688,1.9258 -1.92969,1.9258 -1.08682,0 -1.92969,-0.8408 -1.92969,-1.9258 0,-1.0909 0.84287,-1.9297 1.92969,-1.9297 z"
             style="color:#000000;font-style:normal;font-variant:normal;font-weight:normal;font-stretch:normal;font-size:medium;line-height:normal;font-family:sans-serif;text-indent:0;text-align:start;text-decoration:none;text-decoration-line:none;text-decoration-style:solid;text-decoration-color:#000000;letter-spacing:normal;word-spacing:normal;text-transform:none;writing-mode:lr-tb;direction:ltr;baseline-shift:baseline;text-anchor:start;white-space:normal;clip-rule:nonzero;display:inline;overflow:visible;visibility:visible;opacity:1;isolation:auto;mix-blend-mode:normal;color-interpolation:sRGB;color-interpolation-filters:linearRGB;solid-color:#000000;solid-opacity:1;fill:#ffffff;fill-opacity:1;fill-rule:nonzero;stroke:none;stroke-width:4;stroke-linecap:round;stroke-linejoin:round;stroke-miterlimit:4;stroke-dasharray:none;stroke-dashoffset:0;stroke-opacity:1;color-rendering:auto;image-rendering:auto;shape-rendering:auto;text-rendering:auto;enable-background:accumulate" />
        </g>
        <g
           style="fill:#ffffff;fill-opacity:1"
           transform="matrix(1.25,0,0,1.25,-343.95,-1301.2356)"
           id="g114">
          <path
             inkscape:connector-curvature="0"
             id="path116"
             d="m 472.01562,1373.1758 c -3.25118,0 -5.92968,2.6766 -5.92968,5.9258 0,3.2506 2.6785,5.9296 5.92968,5.9296 3.24919,0 5.92579,-2.6796 5.92579,-5.9296 0,-3.2486 -2.6766,-5.9258 -5.92579,-5.9258 z m 0,4 c 1.08682,0 1.92579,0.8383 1.92579,1.9258 0,1.0919 -0.83897,1.9297 -1.92579,1.9296 -1.09281,0 -1.92968,-0.8383 -1.92968,-1.9296 0,-1.0869 0.83687,-1.9258 1.92968,-1.9258 z"
             style="color:#000000;font-style:normal;font-variant:normal;font-weight:normal;font-stretch:normal;font-size:medium;line-height:normal;font-family:sans-serif;text-indent:0;text-align:start;text-decoration:none;text-decoration-line:none;text-decoration-style:solid;text-decoration-color:#000000;letter-spacing:normal;word-spacing:normal;text-transform:none;writing-mode:lr-tb;direction:ltr;baseline-shift:baseline;text-anchor:start;white-space:normal;clip-rule:nonzero;display:inline;overflow:visible;visibility:visible;opacity:1;isolation:auto;mix-blend-mode:normal;color-interpolation:sRGB;color-interpolation-filters:linearRGB;solid-color:#000000;solid-opacity:1;fill:#ffffff;fill-opacity:1;fill-rule:nonzero;stroke:none;stroke-width:4;stroke-linecap:round;stroke-linejoin:round;stroke-miterlimit:4;stroke-dasharray:none;stroke-dashoffset:0;stroke-opacity:1;color-rendering:auto;image-rendering:auto;shape-rendering:auto;text-rendering:auto;enable-background:accumulate" />
        </g>
      </g>
    </g>
    <g
       aria-label="cryptoparty.maschinendeck.org"
       transform="matrix(0.26458333,0,0,0.26458333,96.982743,789.36569)"
       style="font-style:normal;font-variant:normal;font-weight:normal;font-stretch:normal;font-size:85.33333588px;line-height:25px;font-family:'Nova Square';-inkscape-font-specification:'Nova Square, Normal';font-variant-ligatures:normal;font-variant-caps:normal;font-variant-numeric:normal;font-feature-settings:normal;text-align:start;letter-spacing:0px;word-spacing:0px;writing-mode:lr-tb;text-anchor:start;display:inline;fill:#ffffff;fill-opacity:1;stroke:none;stroke-width:1px;stroke-linecap:butt;stroke-linejoin:miter;stroke-opacity:1"
       id="flowRoot1703">
      <path
         d="m 149.3457,84.183945 q -12.5,0 -12.5,-12.500001 V 50.85061 q 0,-12.5 12.5,-12.5 h 9.58334 q 12.5,0 12.5,12.5 v 2.208334 l -7.91667,3.75 H 163.0957 V 50.85061 q 0,-5 -4.16666,-5 h -9.58334 q -4.16666,0 -4.16666,5 v 20.833334 q 0,5 4.16666,5 h 9.58334 q 4.16666,0 4.16666,-5 v -2.208333 l 7.91667,-3.75 h 0.41667 v 5.958333 q 0,12.500001 -12.5,12.500001 z"
         style=""
         id="path23869" />
      <path
         d="M 184.01237,85.850611 V 50.85061 q 0,-12.5 12.5,-12.5 h 10.41667 v 0.416667 l -3.33333,7.083333 h -7.08334 q -4.16667,0 -4.16667,5 v 31.250001 l -7.91666,3.75 z"
         style=""
         id="path23871" />
      <path
         d="m 226.51238,84.183945 q -12.5,0 -12.5,-12.500001 V 40.433943 l 7.91666,-3.75 h 0.41667 v 35.000001 q 0,5 4.16667,5 h 9.58333 q 4.16667,0 4.16667,-5 V 40.433943 l 7.91666,-3.75 h 0.41667 v 52.083335 q 0,12.500002 -12.5,12.500002 h -17.75 v -0.41667 l 3.33333,-7.083332 h 14.41667 q 4.16667,0 4.16667,-5 v -5.833333 q -1.625,1.25 -4.16667,1.25 z"
         style=""
         id="path23873" />
      <path
         d="m 277.76237,84.183945 q -2.83333,0 -4.16666,-1.291667 v 16.291667 l -7.91667,3.750005 h -0.41667 V 50.85061 q 0,-12.5 12.5,-12.5 h 9.58334 q 12.5,0 12.5,12.5 v 20.833334 q 0,12.500001 -12.5,12.500001 z m 0,-7.500001 h 9.58334 q 4.16666,0 4.16666,-5 V 50.85061 q 0,-5 -4.16666,-5 h -9.58334 q -4.16666,0 -4.16666,5 v 20.833334 q 0,5 4.16666,5 z"
         style=""
         id="path23875" />
      <path
         d="M 317.8457,85.850611 V 45.933943 h -10.70833 v -0.416666 l 3.375,-7.166667 h 7.33333 V 23.350609 l 7.91667,-3.75 h 0.41667 V 38.35061 h 10.70833 v 0.416667 l -3.375,7.166666 h -7.33333 v 36.166668 l -7.91667,3.75 z"
         style=""
         id="path23877" />
      <path
         d="m 356.67905,76.683944 h 9.58333 q 4.16667,0 4.16667,-5 V 50.85061 q 0,-5 -4.16667,-5 h -9.58333 q -4.16667,0 -4.16667,5 v 20.833334 q 0,5 4.16667,5 z m 0,7.500001 q -12.5,0 -12.5,-12.500001 V 50.85061 q 0,-12.5 12.5,-12.5 h 9.58333 q 12.5,0 12.5,12.5 v 20.833334 q 0,12.500001 -12.5,12.500001 z"
         style=""
         id="path23879" />
      <path
         d="m 405.92904,84.183945 q -2.83334,0 -4.16667,-1.291667 v 16.291667 l -7.91667,3.750005 h -0.41666 V 50.85061 q 0,-12.5 12.5,-12.5 h 9.58333 q 12.5,0 12.5,12.5 v 20.833334 q 0,12.500001 -12.5,12.500001 z m 0,-7.500001 h 9.58333 q 4.16667,0 4.16667,-5 V 50.85061 q 0,-5 -4.16667,-5 h -9.58333 q -4.16667,0 -4.16667,5 v 20.833334 q 0,5 4.16667,5 z"
         style=""
         id="path23881" />
      <path
         d="m 450.92906,76.683944 h 8.75 q 4.16666,0 4.16666,-5 v -5.708333 q 0,-5 -4.16666,-5 h -8.75 q -4.16667,0 -4.16667,5 v 5.708333 q 0,5 4.16667,5 z m 0,7.500001 q -12.5,0 -12.5,-12.500001 v -5.708333 q 0,-12.500001 12.5,-12.500001 h 8.75 q 2.16666,0 4.16666,1.25 v -3.875 q 0,-5 -4.16666,-5 h -14.91667 v -0.416667 l 3.33333,-7.083333 h 11.58334 q 12.5,0 12.5,12.5 v 31.250001 l -7.91667,3.75 h -0.41667 v -2.916666 q -1.58333,1.25 -4.16666,1.25 z"
         style=""
         id="path23883" />
      <path
         d="M 484.67905,85.850611 V 50.85061 q 0,-12.5 12.5,-12.5 h 10.41666 v 0.416667 l -3.33333,7.083333 h -7.08333 q -4.16667,0 -4.16667,5 v 31.250001 l -7.91667,3.75 z"
         style=""
         id="path23885" />
      <path
         d="M 520.17905,85.850611 V 45.933943 h -10.70834 v -0.416666 l 3.375,-7.166667 h 7.33334 V 23.350609 l 7.91666,-3.75 h 0.41667 V 38.35061 h 10.70833 v 0.416667 l -3.375,7.166666 h -7.33333 v 36.166668 l -7.91667,3.75 z"
         style=""
         id="path23887" />
      <path
         d="m 559.01239,84.183945 q -12.5,0 -12.5,-12.500001 V 40.433943 l 7.91667,-3.75 h 0.41666 v 35.000001 q 0,5 4.16667,5 h 9.58333 q 4.16667,0 4.16667,-5 V 40.433943 l 7.91667,-3.75 h 0.41666 v 52.083335 q 0,12.500002 -12.5,12.500002 h -17.75 v -0.41667 l 3.33334,-7.083332 h 14.41666 q 4.16667,0 4.16667,-5 v -5.833333 q -1.625,1.25 -4.16667,1.25 z"
         style=""
         id="path23889" />
      <path
         d="m 598.38738,83.517278 q -1.45833,-1.5 -1.45833,-3.583334 0,-2.125 1.45833,-3.625 1.45833,-1.5 3.54167,-1.5 2.08333,0 3.54166,1.5 1.45834,1.5 1.45834,3.625 0,2.083334 -1.45834,3.583334 -1.45833,1.5 -3.54166,1.5 -2.08334,0 -3.54167,-1.5 z"
         style=""
         id="path23891" />
      <path
         d="M 620.67905,85.850611 V 50.85061 q 0,-12.5 12.5,-12.5 h 9.58333 q 5.75,0 8.33333,3.083333 2.75,-3.083333 8.33334,-3.083333 h 9.58333 q 12.5,0 12.5,12.5 v 31.250001 l -7.91666,3.75 h -0.41667 V 50.85061 q 0,-5 -4.16667,-5 h -9.58333 q -4.16667,0 -4.16667,5 v 31.250001 l -7.91667,3.75 h -0.41666 V 50.85061 q 0,-5 -4.16667,-5 h -9.58333 q -4.16667,0 -4.16667,5 v 31.250001 l -7.91667,3.75 z"
         style=""
         id="path23893" />
      <path
         d="m 704.42906,76.683944 h 8.75 q 4.16666,0 4.16666,-5 v -5.708333 q 0,-5 -4.16666,-5 h -8.75 q -4.16667,0 -4.16667,5 v 5.708333 q 0,5 4.16667,5 z m 0,7.500001 q -12.5,0 -12.5,-12.500001 v -5.708333 q 0,-12.500001 12.5,-12.500001 h 8.75 q 2.16666,0 4.16666,1.25 v -3.875 q 0,-5 -4.16666,-5 h -14.91667 v -0.416667 l 3.33333,-7.083333 h 11.58334 q 12.5,0 12.5,12.5 v 31.250001 l -7.91667,3.75 h -0.41667 v -2.916666 q -1.58333,1.25 -4.16666,1.25 z"
         style=""
         id="path23895" />
      <path
         d="m 749.42908,84.183945 q -12.5,0 -12.5,-12.500001 v -1.5 l 7.91666,-3.75 h 0.41667 v 5.25 q 0,5 4.16667,5 h 9.58333 q 4.16667,0 4.16667,-5 v -3.291667 q 0,-5 -4.16667,-5 h -7.83333 q -12.5,0 -12.5,-12.541667 0,-12.5 12.5,-12.5 h 4.875 q 12.5,0 12.5,10.083334 l -7.91667,3.75 h -0.41667 V 50.85061 q 0,-5 -4.16666,-5 h -4.875 q -4.16667,0 -4.16667,5 0,5.041667 4.16667,5.041667 h 7.83333 q 12.5,0 12.5,12.5 v 3.291667 q 0,12.500001 -12.5,12.500001 z"
         style=""
         id="path23897" />
      <path
         d="m 795.3457,84.183945 q -12.5,0 -12.5,-12.500001 V 50.85061 q 0,-12.5 12.5,-12.5 h 9.58334 q 12.5,0 12.5,12.5 v 2.208334 l -7.91667,3.75 H 809.0957 V 50.85061 q 0,-5 -4.16666,-5 h -9.58334 q -4.16666,0 -4.16666,5 v 20.833334 q 0,5 4.16666,5 h 9.58334 q 4.16666,0 4.16666,-5 v -2.208333 l 7.91667,-3.75 h 0.41667 v 5.958333 q 0,12.500001 -12.5,12.500001 z"
         style=""
         id="path23899" />
      <path
         d="M 832.09572,85.850611 V 23.350609 l 7.91667,-3.75 h 0.41667 v 20.041668 q 1.83333,-1.291667 4.16666,-1.291667 h 9.58334 q 12.5,0 12.5,12.5 v 31.250001 l -7.91667,3.75 h -0.41667 V 50.85061 q 0,-5 -4.16666,-5 h -9.58334 q -4.16666,0 -4.16666,5 v 31.250001 l -7.91667,3.75 z"
         style=""
         id="path23901" />
      <path
         d="m 881.88741,29.142276 q -1.45833,-1.5 -1.45833,-3.583333 0,-2.125 1.45833,-3.625 1.45833,-1.5 3.54167,-1.5 2.08333,0 3.54166,1.5 1.45834,1.5 1.45834,3.625 0,2.083333 -1.45834,3.583333 -1.45833,1.5 -3.54166,1.5 -2.08334,0 -3.54167,-1.5 z m -0.625,56.708335 V 40.433943 l 7.91667,-3.75 h 0.41666 v 45.416668 l -7.91666,3.75 z"
         style=""
         id="path23903" />
      <path
         d="M 904.17908,85.850611 V 50.85061 q 0,-12.5 12.5,-12.5 h 9.58333 q 12.5,0 12.5,12.5 v 31.250001 l -7.91667,3.75 h -0.41666 V 50.85061 q 0,-5 -4.16667,-5 h -9.58333 q -4.16667,0 -4.16667,5 v 31.250001 l -7.91667,3.75 z"
         style=""
         id="path23905" />
      <path
         d="m 963.8457,84.183945 q -12.5,0 -12.5,-12.500001 V 50.85061 q 0,-12.5 12.5,-12.5 h 9.58334 q 12.5,0 12.5,12.5 v 2.208334 l -26.125,20.208334 q 0.58333,3.416666 4.04166,3.416666 h 9.58334 q 4.16666,0 4.16666,-5 v -2.208333 l 7.91667,-3.75 h 0.41667 v 5.958333 q 0,12.500001 -12.5,12.500001 z m -4.16666,-19.625001 17.875,-14.416667 q -0.25,-4.291667 -4.125,-4.291667 h -9.58334 q -4.16666,0 -4.16666,5 z"
         style=""
         id="path23907" />
      <path
         d="M 998.51239,85.850611 V 50.85061 q 0,-12.5 12.50001,-12.5 h 9.5833 q 12.5,0 12.5,12.5 v 31.250001 l -7.9166,3.75 h -0.4167 V 50.85061 q 0,-5 -4.1667,-5 h -9.5833 q -4.1667,0 -4.1667,5 v 31.250001 l -7.91664,3.75 z"
         style=""
         id="path23909" />
      <path
         d="m 1058.1791,84.183945 q -12.5,0 -12.5,-12.500001 V 50.85061 q 0,-12.5 12.5,-12.5 h 9.5833 q 2.8333,0 4.1667,1.291667 V 23.350609 l 7.9166,-3.75 h 0.4167 v 52.083335 q 0,12.500001 -12.5,12.500001 z m 0,-7.500001 h 9.5833 q 4.1667,0 4.1667,-5 V 50.85061 q 0,-5 -4.1667,-5 h -9.5833 q -4.1667,0 -4.1667,5 v 20.833334 q 0,5 4.1667,5 z"
         style=""
         id="path23911" />
      <path
         d="m 1107.3457,84.183945 q -12.5,0 -12.5,-12.500001 V 50.85061 q 0,-12.5 12.5,-12.5 h 9.5833 q 12.5,0 12.5,12.5 v 2.208334 l -26.125,20.208334 q 0.5834,3.416666 4.0417,3.416666 h 9.5833 q 4.1667,0 4.1667,-5 v -2.208333 l 7.9167,-3.75 h 0.4166 v 5.958333 q 0,12.500001 -12.5,12.500001 z m -4.1667,-19.625001 17.875,-14.416667 q -0.25,-4.291667 -4.125,-4.291667 h -9.5833 q -4.1667,0 -4.1667,5 z"
         style=""
         id="path23913" />
      <path
         d="m 1154.5124,84.183945 q -12.5,0 -12.5,-12.500001 V 50.85061 q 0,-12.5 12.5,-12.5 h 9.5833 q 12.5,0 12.5,12.5 v 2.208334 l -7.9166,3.75 h -0.4167 V 50.85061 q 0,-5 -4.1667,-5 h -9.5833 q -4.1667,0 -4.1667,5 v 20.833334 q 0,5 4.1667,5 h 9.5833 q 4.1667,0 4.1667,-5 v -2.208333 l 7.9167,-3.75 h 0.4166 v 5.958333 q 0,12.500001 -12.5,12.500001 z"
         style=""
         id="path23915" />
      <path
         d="M 1191.2624,85.850611 V 23.350609 l 7.9167,-3.75 h 0.4166 V 53.35061 q 0.5417,-0.125 1.1667,-0.208333 l 16.25,-16.458334 h 0.4167 l 7.3333,3.458334 -13.9167,12.791667 h 2.5 q 12.5,0 12.5,12.5 v 16.666667 l -7.9166,3.75 h -0.4167 V 65.433944 q 0,-5 -4.1667,-5 h -9.5833 q -4.1667,0 -4.1667,5 v 16.666667 l -7.9166,3.75 z"
         style=""
         id="path23917" />
      <path
         d="m 1241.054,83.517278 q -1.4583,-1.5 -1.4583,-3.583334 0,-2.125 1.4583,-3.625 1.4584,-1.5 3.5417,-1.5 2.0833,0 3.5417,1.5 1.4583,1.5 1.4583,3.625 0,2.083334 -1.4583,3.583334 -1.4584,1.5 -3.5417,1.5 -2.0833,0 -3.5417,-1.5 z"
         style=""
         id="path23919" />
      <path
         d="m 1275.8457,76.683944 h 9.5833 q 4.1667,0 4.1667,-5 V 50.85061 q 0,-5 -4.1667,-5 h -9.5833 q -4.1667,0 -4.1667,5 v 20.833334 q 0,5 4.1667,5 z m 0,7.500001 q -12.5,0 -12.5,-12.500001 V 50.85061 q 0,-12.5 12.5,-12.5 h 9.5833 q 12.5,0 12.5,12.5 v 20.833334 q 0,12.500001 -12.5,12.500001 z"
         style=""
         id="path23921" />
      <path
         d="M 1310.5125,85.850611 V 50.85061 q 0,-12.5 12.5,-12.5 h 10.4166 v 0.416667 l -3.3333,7.083333 h -7.0833 q -4.1667,0 -4.1667,5 v 31.250001 l -7.9167,3.75 z"
         style=""
         id="path23923" />
      <path
         d="m 1353.0125,84.183945 q -12.5,0 -12.5,-12.500001 V 50.85061 q 0,-12.5 12.5,-12.5 h 9.5833 q 12.5,0 12.5,12.5 v 37.916668 q 0,12.500002 -12.5,12.500002 h -17.75 v -0.41667 l 3.3333,-7.083332 h 14.4167 q 4.1667,0 4.1667,-5 v -5.833333 q -1.75,1.25 -4.1667,1.25 z m 0,-7.500001 h 9.5833 q 4.1667,0 4.1667,-5 V 50.85061 q 0,-5 -4.1667,-5 h -9.5833 q -4.1667,0 -4.1667,5 v 20.833334 q 0,5 4.1667,5 z"
         style=""
         id="path23925" />
    </g>
    <path
       style="fill:#ffffff;fill-opacity:1;stroke-width:0.26458332"
       d="m 490.59504,740.52564 v 76 h 76.00003 v -76 z m 1.80953,1.80952 h 10.13333 10.13334 v 10.13334 10.13333 H 502.5379 492.40457 V 752.4685 Z m 34.74287,0 h 2.89523 2.89524 v 1.44762 1.44762 h -2.89524 -2.89523 v -1.44762 z m 11.58095,0 h 1.44762 1.44761 v 1.44762 1.44762 h -1.44761 -1.44762 v 2.89524 2.89524 h -1.44763 -1.44761 v 1.44762 1.44761 h -1.44762 -1.44762 v 1.44762 1.44763 h 2.89524 2.89524 v -1.44763 -1.44762 h 1.44762 1.44761 v 4.34286 4.34286 h -1.44761 -1.44762 v -1.44762 -1.44762 h -1.44763 -1.44761 v 1.44762 1.44762 h -1.44762 -1.44762 v -1.44762 -1.44762 h -1.44761 -1.44763 v 2.89524 2.89524 h 4.34286 4.34286 v 1.44761 1.44763 h 1.44762 1.44761 v -1.44763 -1.44761 h 1.44762 1.44763 v 2.89524 2.89523 h 1.44761 1.44762 v -2.89523 -2.89524 h 1.44763 1.44761 v 2.89524 2.89523 h 1.44762 1.44762 v -2.89523 -2.89524 h 1.44761 1.44763 v 1.44761 1.44763 h 1.44762 1.44761 v -1.44763 -1.44761 h 1.44762 1.44762 v 2.89524 2.89523 h 1.44762 1.44764 v 1.44762 1.44763 h -2.89526 -2.89524 v -1.44763 -1.44762 h -2.89523 -2.89524 v 1.44762 1.44763 h -1.44762 -1.44762 v -1.44763 -1.44762 h -1.44761 -1.44763 v 2.89525 2.89523 h 2.89524 2.89524 v 1.44762 1.44762 h 1.44761 1.44763 v -1.44762 -1.44762 h 1.44762 1.44761 v 1.44762 1.44762 h 1.44762 1.44762 v -1.44762 -1.44762 h 1.44762 1.44764 v 1.44762 1.44762 h -1.44764 -1.44762 v 1.44762 1.44762 h 1.44762 1.44764 v 1.44761 1.44763 h -1.44764 -1.44762 v 1.44762 1.44761 h 1.44762 1.44764 v 1.44762 1.44763 h -1.44764 -1.44762 v -1.44763 -1.44762 h -1.44762 -1.44762 v 1.44762 1.44763 h -1.44761 -1.44762 v -1.44763 -1.44762 h 1.44762 1.44761 v -4.34286 -4.34285 h -1.44761 -1.44762 v 2.89524 2.89524 h -1.44763 -1.44761 v -2.89524 -2.89524 h -1.44762 -1.44762 v 2.89524 2.89524 h -1.44761 -1.44763 v 1.44762 1.44761 h 2.89524 2.89524 v 2.89525 2.89523 h 1.44761 1.44763 v 1.44762 1.44761 h -1.44763 -1.44761 v 1.44763 1.44762 h 2.89524 2.89523 v -2.89525 -2.89523 h 2.89524 2.89526 v 2.89523 2.89525 h -1.44764 -1.44762 v 1.44761 1.44763 h 1.44762 1.44764 v 5.79048 5.79046 h -4.34288 -4.34285 v -1.44761 -1.44762 h 2.89523 2.89524 v -2.89523 -2.89525 h -1.44762 -1.44762 v 1.44762 1.44763 h -1.44761 -1.44762 v -2.89525 -2.89523 h -1.44763 -1.44761 v 1.44762 1.44761 h -1.44762 -1.44762 v 1.44762 1.44763 h -1.44761 -1.44763 v -1.44763 -1.44762 h -1.44762 -1.44761 v -1.44761 -1.44762 h -8.68572 -8.68571 v 1.44762 1.44761 h -2.89525 -2.89523 v 1.44762 1.44763 h 4.34286 4.34285 v 1.44761 1.44762 h 1.44763 1.44761 v -2.89523 -2.89525 h 1.44762 1.44762 v 1.44762 1.44763 h 1.44761 1.44763 v -1.44763 -1.44762 h 1.44762 1.44761 v 1.44762 1.44763 h 1.44762 1.44763 v 1.44761 1.44762 h -4.34286 -4.34286 v 1.44762 1.44761 h -4.34285 -4.34286 v -1.44761 -1.44762 h -2.89525 -2.89523 v -1.44762 -1.44761 h -1.44763 -1.44761 v 2.89523 2.89523 h -1.44762 -1.44762 v -7.23809 -7.23809 h 1.44762 1.44762 v -1.44762 -1.44763 h -1.44762 -1.44762 v -2.89523 -2.89523 h -2.89524 -2.89523 v -1.44763 -1.44762 h -1.44762 -1.44763 v -1.44761 -1.44762 h 1.44763 1.44762 v -1.44763 -1.44761 h -1.44762 -1.44763 v -4.34286 -4.34285 h -1.44761 -1.44762 v 8.68571 8.68572 h -1.44763 -1.44761 v -1.44763 -1.44762 h -1.44762 -1.44762 v -4.34286 -4.34285 h -1.44762 -1.44762 v 5.79048 5.79048 h -1.44762 -1.44762 v -10.13334 -10.13334 h 2.89524 2.89524 v 1.44762 1.44763 h 1.44762 1.44762 v -1.44763 -1.44762 h 2.89524 2.89523 v 1.44762 1.44763 h 1.44763 1.44762 v -1.44763 -1.44762 h 2.89523 2.89524 v -1.44761 -1.44762 h -2.89524 -2.89523 v -1.44763 -1.44761 h 4.34286 4.34285 v -1.44762 -1.44762 h -1.44762 -1.44762 v -2.89524 -2.89523 h 1.44762 1.44762 v -1.44763 -1.44762 h -1.44762 -1.44762 v -1.44761 -1.44762 h 4.34285 4.34286 v -1.44763 -1.44761 h -1.44761 -1.44762 v -1.44762 -1.44762 h 1.44762 1.44761 v 1.44762 1.44762 h 1.44763 1.44762 v 1.44761 1.44763 h 2.89523 2.89524 v -1.44763 -1.44761 h 1.44762 1.44762 v -1.44762 -1.44762 h 1.44761 1.44763 v -1.44762 z m -11.58095,8.68572 h -1.44762 -1.44763 v 1.44762 1.44761 h 1.44763 1.44762 v -1.44761 z m 0,2.89523 v 1.44762 1.44763 h 1.44761 1.44762 v -1.44763 -1.44762 h -1.44762 z m 0,2.89525 h -1.44762 -1.44763 v -1.44763 -1.44762 h -1.44761 -1.44762 v 2.89525 2.89523 h 1.44762 1.44761 v 1.44762 1.44762 h 1.44763 1.44762 v -2.89524 z m -5.79048,2.89523 h -1.44763 -1.44761 v 1.44762 1.44762 h 1.44761 1.44763 v -1.44762 z m -5.79048,11.58095 v 1.44762 1.44763 h 1.44762 1.44762 v 1.44761 1.44762 h 2.89524 2.89523 v -1.44762 -1.44761 h -1.44761 -1.44762 v -2.89525 -2.89523 h -1.44763 -1.44761 v 1.44762 1.44761 h -1.44762 z m 5.79048,-2.89523 h 2.89523 2.89525 v 1.44762 1.44761 h -1.44762 -1.44763 v 1.44762 1.44763 h 1.44763 1.44762 v 1.44761 1.44762 h 2.89523 2.89524 v -2.89523 -2.89525 h 2.89524 2.89524 v -1.44761 -1.44762 h -4.34286 -4.34286 v -1.44763 -1.44761 h -4.34285 -4.34286 v 1.44761 z m -2.89524,8.68571 h -2.89524 -2.89524 v 1.44762 1.44762 h 1.44763 1.44761 v 1.44762 1.44762 h 1.44762 1.44762 v 1.44761 1.44763 h 1.44761 1.44763 v -1.44763 -1.44761 h 1.44762 1.44761 v -1.44762 -1.44762 h -2.89523 -2.89524 v -1.44762 z m 5.79047,5.79048 v 1.44761 1.44763 h 1.44763 1.44762 v -1.44763 -1.44761 h -1.44762 z m 2.89525,0 h 1.44761 1.44762 v -1.44762 -1.44762 h -1.44762 -1.44761 v 1.44762 z m 0,2.89524 v 1.44762 1.44761 h 4.34286 4.34285 v -1.44761 -1.44762 h -4.34285 z m -8.68572,0 h -1.44762 -1.44762 v 2.89523 2.89525 h 1.44762 1.44762 v 2.89523 2.89523 h 5.79047 5.79048 v 1.44763 1.44762 h 4.34286 4.34286 v -2.89525 -2.89523 h -1.44763 -1.44761 v 1.44762 1.44761 h -1.44762 -1.44762 v -1.44761 -1.44762 h 1.44762 1.44762 v -1.44762 -1.44761 h -2.89524 -2.89524 v 1.44761 1.44762 h -2.89523 -2.89525 v -1.44762 -1.44761 h -1.44761 -1.44762 v -1.44763 -1.44762 h -1.44763 -1.44761 v -1.44761 z m -5.79048,-5.79048 h -1.44762 -1.44761 v 1.44762 1.44762 h 1.44761 1.44762 v -1.44762 z m 0,-2.89524 v -1.44762 -1.44761 h -1.44762 -1.44761 v 1.44761 1.44762 h 1.44761 z m -14.47619,-2.89523 h -1.44762 -1.44762 v 1.44761 1.44762 h 1.44762 1.44762 v -1.44762 z m 11.58096,11.58095 v 1.44762 1.44761 h 1.44761 1.44762 v -1.44761 -1.44762 h -1.44762 z m 8.68571,14.47619 v 1.44761 1.44763 h 2.89524 2.89523 v -1.44763 -1.44761 h -2.89523 z m 28.95238,5.79047 h 1.44763 1.44761 v -1.44761 -1.44762 h -1.44761 -1.44763 v 1.44762 z m 0,-20.26666 v -2.89524 -2.89524 h -1.44762 -1.44761 v 1.44762 1.44762 h -1.44763 -1.44762 v 1.44761 1.44763 h 2.89525 z m -5.79048,0 h -1.44761 -1.44762 v 1.44762 1.44761 h 1.44762 1.44761 v -1.44761 z m 2.89525,-43.42858 h 10.13332 10.13336 v 10.13334 10.13333 H 554.65219 544.51887 V 752.4685 Z m -49.21906,2.89524 v 7.2381 7.23809 h 7.23809 7.23811 v -7.23809 -7.2381 h -7.23811 z m 20.26667,0 h 1.44762 1.44762 v 1.44762 1.44762 h -1.44762 -1.44762 v -1.44762 z m 31.84762,0 v 7.2381 7.23809 h 7.23809 7.2381 v -7.23809 -7.2381 h -7.2381 z m -49.21905,2.89524 h 4.34285 4.34286 v 4.34286 4.34286 h -4.34286 -4.34285 v -4.34286 z m 52.11429,0 h 4.34285 4.34286 v 4.34286 4.34286 h -4.34286 -4.34285 v -4.34286 z m -57.90477,17.37143 h 7.2381 7.23809 v 1.44761 1.44763 h -7.23809 -7.2381 v -1.44763 z m 43.42858,8.68572 v 1.44761 1.44762 h 4.34286 4.34286 v -1.44762 -1.44761 h -4.34286 z m -2.89524,5.79047 v 1.44762 1.44762 h 2.89524 2.89524 v -1.44762 -1.44762 h -2.89524 z m 8.68571,11.58096 v 4.34285 4.34286 h 4.34286 4.34286 v -4.34286 -4.34285 h -4.34286 z m -49.21905,2.89523 h 10.13333 10.13334 v 10.13334 10.13332 H 502.5379 492.40457 v -10.13332 z m 52.1143,0 h 1.44761 1.44762 v 1.44762 1.44761 h -1.44762 -1.44761 v -1.44761 z m -49.21906,2.89523 v 7.23811 7.23809 h 7.23809 7.23811 v -7.23809 -7.23811 h -7.23811 z m 2.89524,2.89525 h 4.34285 4.34286 v 4.34286 4.34286 h -4.34286 -4.34285 v -4.34286 z"
       id="path1680-6"
       inkscape:connector-curvature="0" />
    <g
       id="g1879"
       transform="translate(0,-6.3500003)">
      <g
         aria-label="7. April"
         transform="matrix(0.26458333,0,0,0.26458333,-1.5440778,-87.544976)"
         style="font-style:normal;font-variant:normal;font-weight:normal;font-stretch:normal;font-size:112px;line-height:25px;font-family:'Nova Square';-inkscape-font-specification:'Nova Square, Normal';font-variant-ligatures:normal;font-variant-caps:normal;font-variant-numeric:normal;font-feature-settings:normal;text-align:start;letter-spacing:0px;word-spacing:0px;writing-mode:lr-tb;text-anchor:start;display:inline;fill:#ff0098;fill-opacity:1;stroke:none;stroke-width:1px;stroke-linecap:butt;stroke-linejoin:miter;stroke-opacity:1"
         id="flowRoot1745">
        <path
           d="m 140.14844,2557.8674 h -0.54688 l -9.84375,-4.6484 25.04688,-70.1641 h -36.96875 v -0.5469 l 4.42969,-9.4062 H 169.625 v 0.5469 z"
           style=""
           id="path23785" />
        <path
           d="m 184.17187,2554.8049 q -1.91406,-1.9687 -1.91406,-4.7031 0,-2.7891 1.91406,-4.7578 1.91407,-1.9688 4.64844,-1.9688 2.73438,0 4.64844,1.9688 1.91406,1.9687 1.91406,4.7578 0,2.7344 -1.91406,4.7031 -1.91406,1.9688 -4.64844,1.9688 -2.73437,0 -4.64844,-1.9688 z"
           style=""
           id="path23787" />
        <path
           d="m 259.91406,2557.8674 v -65.625 q 0,-19.1406 19.14063,-19.1406 h 16.95312 q 19.14063,0 19.14063,19.1406 v 60.7031 l -10.39063,4.9219 h -0.54687 v -38.5 h -33.35938 v 33.5781 l -10.39062,4.9219 z m 10.9375,-48.4531 h 33.35938 v -17.1719 q 0,-9.2969 -8.20313,-9.2969 h -16.95312 q -8.20313,0 -8.20313,9.2969 z"
           style=""
           id="path23789" />
        <path
           d="m 353.53906,2555.6799 q -3.71875,0 -5.46875,-1.6953 v 21.3828 l -10.39062,4.9219 h -0.54688 v -68.3594 q 0,-16.4062 16.40625,-16.4062 h 12.57813 q 16.40625,0 16.40625,16.4062 v 27.3438 q 0,16.4062 -16.40625,16.4062 z m 0,-9.8437 h 12.57813 q 5.46875,0 5.46875,-6.5625 v -27.3438 q 0,-6.5625 -5.46875,-6.5625 h -12.57813 q -5.46875,0 -5.46875,6.5625 v 27.3438 q 0,6.5625 5.46875,6.5625 z"
           style=""
           id="path23791" />
        <path
           d="m 398.92969,2557.8674 v -45.9375 q 0,-16.4062 16.40625,-16.4062 h 13.67187 v 0.5468 l -4.375,9.2969 h -9.29687 q -5.46875,0 -5.46875,6.5625 v 41.0156 l -10.39063,4.9219 z"
           style=""
           id="path23793" />
        <path
           d="m 441.85937,2483.4377 q -1.91406,-1.9687 -1.91406,-4.7031 0,-2.7891 1.91406,-4.7578 1.91407,-1.9688 4.64844,-1.9688 2.73438,0 4.64844,1.9688 1.91406,1.9687 1.91406,4.7578 0,2.7344 -1.91406,4.7031 -1.91406,1.9688 -4.64844,1.9688 -2.73437,0 -4.64844,-1.9688 z m -0.82031,74.4297 v -59.6094 l 10.39063,-4.9218 h 0.54687 v 59.6093 l -10.39062,4.9219 z"
           style=""
           id="path23795" />
        <path
           d="m 473.85156,2557.8674 v -82.0312 l 10.39063,-4.9219 h 0.54687 v 82.0312 l -10.39062,4.9219 z"
           style=""
           id="path23797" />
      </g>
      <g
         aria-label="17:23 Uhr"
         transform="matrix(0.26458333,0,0,0.26458333,-1.1099958,-44.843237)"
         style="font-style:normal;font-variant:normal;font-weight:normal;font-stretch:normal;font-size:112px;line-height:25px;font-family:'Nova Square';-inkscape-font-specification:'Nova Square, Normal';font-variant-ligatures:normal;font-variant-caps:normal;font-variant-numeric:normal;font-feature-settings:normal;text-align:start;letter-spacing:0px;word-spacing:0px;writing-mode:lr-tb;text-anchor:start;display:inline;fill:#ff0098;fill-opacity:1;stroke:none;stroke-width:1px;stroke-linecap:butt;stroke-linejoin:miter;stroke-opacity:1"
         id="flowRoot1745-1">
        <path
           d="m 129.53906,2557.8674 v -71.75 l -13.34375,7.3281 v -11.2109 l 23.73438,-11.3203 h 0.54687 v 82.0312 l -10.39062,4.9219 z"
           style=""
           id="path23800" />
        <path
           d="m 179.30469,2557.8674 h -0.54688 l -9.84375,-4.6484 25.04688,-70.1641 h -36.96875 v -0.5469 l 4.42968,-9.4062 h 47.35938 v 0.5469 z"
           style=""
           id="path23802" />
        <path
           d="m 223.32812,2519.2033 q -1.91406,-1.9687 -1.91406,-4.7031 0,-2.789 1.91406,-4.7578 1.91407,-1.9687 4.64844,-1.9687 2.73438,0 4.64844,1.9687 1.91406,1.9688 1.91406,4.7578 0,2.7344 -1.91406,4.7031 -1.91406,1.9688 -4.64844,1.9688 -2.73437,0 -4.64844,-1.9688 z m 0,35.6016 q -1.91406,-1.9687 -1.91406,-4.7031 0,-2.7891 1.91406,-4.7578 1.91407,-1.9688 4.64844,-1.9688 2.73438,0 4.64844,1.9688 1.91406,1.9687 1.91406,4.7578 0,2.7344 -1.91406,4.7031 -1.91406,1.9688 -4.64844,1.9688 -2.73437,0 -4.64844,-1.9688 z"
           style=""
           id="path23804" />
        <path
           d="m 252.58594,2555.6799 v -0.5469 l 4.42968,-9.4062 26.19532,-25.375 q 13.125,-12.9063 13.125,-19.1953 v -8.9141 q 0,-9.2969 -8.20313,-9.2969 h -15.85937 q -8.20313,0 -8.20313,9.2969 v 6.0156 l -10.39062,4.9219 h -0.54688 v -10.9375 q 0,-19.1406 19.14063,-19.1406 h 15.85937 q 19.14063,0 19.14063,19.1406 v 9.4609 q 0,10.3907 -14.05469,22.8047 l -23.02344,21.2188 h 38.33594 v 0.5469 l -4.42969,9.4062 z"
           style=""
           id="path23806" />
        <path
           d="m 345.11719,2555.6799 q -19.14063,0 -19.14063,-19.1406 v -6.0156 l 10.39063,-4.9219 h 0.54687 v 10.9375 q 0,9.2969 8.20313,9.2969 h 16.95312 q 8.20313,0 8.20313,-9.2969 v -12.6875 q 0,-9.2969 -8.20313,-9.2969 0,0 -19.35937,0 l 16.78906,-31.5 h -28.65625 v -0.5469 l 4.42969,-9.4062 h 41.17968 l -18.15625,31.6094 h 3.77344 q 19.14063,0 19.14063,19.1406 v 12.6875 q 0,19.1406 -19.14063,19.1406 z"
           style=""
           id="path23808" />
        <path
           d="m 463.89844,2555.6799 q -19.14063,0 -19.14063,-19.1406 v -60.7031 l 10.39063,-4.9219 h 0.54687 v 65.625 q 0,9.2969 8.20313,9.2969 h 16.95312 q 8.20313,0 8.20313,-9.2969 v -60.7031 l 10.39062,-4.9219 h 0.54688 v 65.625 q 0,19.1406 -19.14063,19.1406 z"
           style=""
           id="path23810" />
        <path
           d="m 521.97656,2557.8674 v -82.0312 l 10.39063,-4.9219 h 0.54687 v 26.3047 q 2.40625,-1.6953 5.46875,-1.6953 h 12.57813 q 16.40625,0 16.40625,16.4062 v 41.0156 l -10.39063,4.9219 h -0.54687 v -45.9375 q 0,-6.5625 -5.46875,-6.5625 h -12.57813 q -5.46875,0 -5.46875,6.5625 v 41.0156 l -10.39062,4.9219 z"
           style=""
           id="path23812" />
        <path
           d="m 583.77344,2557.8674 v -45.9375 q 0,-16.4062 16.40625,-16.4062 h 13.67187 v 0.5468 l -4.375,9.2969 h -9.29687 q -5.46875,0 -5.46875,6.5625 v 41.0156 l -10.39063,4.9219 z"
           style=""
           id="path23814" />
      </g>
      <g
         aria-label="Komplex Infoladen"
         transform="matrix(0.26458333,0,0,0.26458333,-3.0254689,-5.3978408)"
         style="font-style:normal;font-variant:normal;font-weight:normal;font-stretch:normal;font-size:85.33333588px;line-height:25px;font-family:'Nova Square';-inkscape-font-specification:'Nova Square, Normal';font-variant-ligatures:normal;font-variant-caps:normal;font-variant-numeric:normal;font-feature-settings:normal;text-align:start;letter-spacing:0px;word-spacing:0px;writing-mode:lr-tb;text-anchor:start;display:inline;fill:#d900ff;fill-opacity:1;stroke:none;stroke-width:1px;stroke-linecap:butt;stroke-linejoin:miter;stroke-opacity:1"
         id="flowRoot1745-1-1">
        <path
           d="m 123.4349,2549.4717 v -23.4583 -39.0417 l 7.91666,-3.75 h 0.41667 v 29.0833 q 0.95833,-0.3333 2.04167,-0.5 l 20.58333,-28.5833 h 0.41667 l 7.33333,3.4583 -18.58333,24.75 h 6.125 q 14.58333,0 14.58333,14.5834 v 19.7083 l -7.91667,3.75 h -0.41666 v -23.4583 q 0,-7.0834 -6.25,-7.0834 h -11.66667 q -6.25,0 -6.25,7.0834 v 19.7083 l -7.91667,3.75 z"
           style=""
           id="path23817" />
        <path
           d="m 190.51823,2540.305 h 9.58333 q 4.16667,0 4.16667,-5 v -20.8333 q 0,-5 -4.16667,-5 h -9.58333 q -4.16667,0 -4.16667,5 v 20.8333 q 0,5 4.16667,5 z m 0,7.5 q -12.5,0 -12.5,-12.5 v -20.8333 q 0,-12.5 12.5,-12.5 h 9.58333 q 12.5,0 12.5,12.5 v 20.8333 q 0,12.5 -12.5,12.5 z"
           style=""
           id="path23819" />
        <path
           d="m 225.1849,2549.4717 v -35 q 0,-12.5 12.5,-12.5 h 9.58333 q 5.75,0 8.33334,3.0833 2.75,-3.0833 8.33333,-3.0833 h 9.58333 q 12.5,0 12.5,12.5 v 31.25 l -7.91666,3.75 h -0.41667 v -35 q 0,-5 -4.16667,-5 h -9.58333 q -4.16667,0 -4.16667,5 v 31.25 l -7.91666,3.75 h -0.41667 v -35 q 0,-5 -4.16667,-5 h -9.58333 q -4.16667,0 -4.16667,5 v 31.25 l -7.91666,3.75 z"
           style=""
           id="path23821" />
        <path
           d="m 313.10157,2547.805 q -2.83334,0 -4.16667,-1.2916 v 16.2916 l -7.91667,3.75 h -0.41666 v -52.0833 q 0,-12.5 12.5,-12.5 h 9.58333 q 12.5,0 12.5,12.5 v 20.8333 q 0,12.5 -12.5,12.5 z m 0,-7.5 h 9.58333 q 4.16667,0 4.16667,-5 v -20.8333 q 0,-5 -4.16667,-5 h -9.58333 q -4.16667,0 -4.16667,5 v 20.8333 q 0,5 4.16667,5 z"
           style=""
           id="path23823" />
        <path
           d="m 349.76824,2549.4717 v -62.5 l 7.91667,-3.75 h 0.41666 v 62.5 l -7.91666,3.75 z"
           style=""
           id="path23825" />
        <path
           d="m 385.18491,2547.805 q -12.5,0 -12.5,-12.5 v -20.8333 q 0,-12.5 12.5,-12.5 h 9.58333 q 12.5,0 12.5,12.5 v 2.2083 l -26.125,20.2084 q 0.58333,3.4166 4.04167,3.4166 h 9.58333 q 4.16667,0 4.16667,-5 v -2.2083 l 7.91666,-3.75 h 0.41667 v 5.9583 q 0,12.5 -12.5,12.5 z m -4.16667,-19.625 17.875,-14.4166 q -0.25,-4.2917 -4.125,-4.2917 h -9.58333 q -4.16667,0 -4.16667,5 z"
           style=""
           id="path23827" />
        <path
           d="m 423.43491,2549.4717 h -0.41667 l -7.25,-3.4167 12.91667,-21.1666 -12.91667,-21.125 7.29167,-3.4584 h 0.41666 l 10.125,17.7917 10.08334,-17.7917 h 0.41666 l 7.29167,3.4584 -12.91667,21.125 12.91667,21.1666 -7.25,3.4167 h -0.41667 l -10.125,-17.8333 z"
           style=""
           id="path23829" />
        <path
           d="m 496.4349,2549.4717 v -62.5 l 7.91666,-3.75 h 0.41667 v 62.5 l -7.91667,3.75 z"
           style=""
           id="path23831" />
        <path
           d="m 519.35156,2549.4717 v -35 q 0,-12.5 12.5,-12.5 h 9.58334 q 12.5,0 12.5,12.5 v 31.25 l -7.91667,3.75 h -0.41667 v -35 q 0,-5 -4.16666,-5 h -9.58334 q -4.16666,0 -4.16666,5 v 31.25 l -7.91667,3.75 z"
           style=""
           id="path23833" />
        <path
           d="m 568.60158,2549.4717 v -35.75 h -6.25 v -0.4167 l 3.375,-7.1666 h 2.875 v -8.75 q 0,-12.5 12.5,-12.5 h 10.41667 v 0.4166 l -3.33333,7.0834 h -7.08334 q -4.16666,0 -4.16666,5 v 8.75 h 13.79166 v 0.4166 l -3.375,7.1667 h -10.41666 v 32 l -7.91667,3.75 z"
           style=""
           id="path23835" />
        <path
           d="m 612.51825,2540.305 h 9.58333 q 4.16667,0 4.16667,-5 v -20.8333 q 0,-5 -4.16667,-5 h -9.58333 q -4.16667,0 -4.16667,5 v 20.8333 q 0,5 4.16667,5 z m 0,7.5 q -12.5,0 -12.5,-12.5 v -20.8333 q 0,-12.5 12.5,-12.5 h 9.58333 q 12.5,0 12.5,12.5 v 20.8333 q 0,12.5 -12.5,12.5 z"
           style=""
           id="path23837" />
        <path
           d="m 649.26827,2549.4717 v -62.5 l 7.91667,-3.75 h 0.41666 v 62.5 l -7.91666,3.75 z"
           style=""
           id="path23839" />
        <path
           d="m 682.6016,2540.305 h 8.75 q 4.16667,0 4.16667,-5 v -5.7083 q 0,-5 -4.16667,-5 h -8.75 q -4.16666,0 -4.16666,5 v 5.7083 q 0,5 4.16666,5 z m 0,7.5 q -12.5,0 -12.5,-12.5 v -5.7083 q 0,-12.5 12.5,-12.5 h 8.75 q 2.16667,0 4.16667,1.25 v -3.875 q 0,-5 -4.16667,-5 h -14.91666 v -0.4167 l 3.33333,-7.0833 h 11.58333 q 12.5,0 12.5,12.5 v 31.25 l -7.91666,3.75 h -0.41667 v -2.9167 q -1.58333,1.25 -4.16667,1.25 z"
           style=""
           id="path23841" />
        <path
           d="m 728.85156,2547.805 q -12.5,0 -12.5,-12.5 v -20.8333 q 0,-12.5 12.5,-12.5 h 9.58334 q 2.83333,0 4.16666,1.2917 v -16.2917 l 7.91667,-3.75 h 0.41667 v 52.0833 q 0,12.5 -12.5,12.5 z m 0,-7.5 h 9.58334 q 4.16666,0 4.16666,-5 v -20.8333 q 0,-5 -4.16666,-5 h -9.58334 q -4.16666,0 -4.16666,5 v 20.8333 q 0,5 4.16666,5 z"
           style=""
           id="path23843" />
        <path
           d="m 778.01825,2547.805 q -12.5,0 -12.5,-12.5 v -20.8333 q 0,-12.5 12.5,-12.5 h 9.58333 q 12.5,0 12.5,12.5 v 2.2083 l -26.125,20.2084 q 0.58334,3.4166 4.04167,3.4166 h 9.58333 q 4.16667,0 4.16667,-5 v -2.2083 l 7.91667,-3.75 h 0.41666 v 5.9583 q 0,12.5 -12.5,12.5 z m -4.16667,-19.625 17.875,-14.4166 q -0.25,-4.2917 -4.125,-4.2917 h -9.58333 q -4.16667,0 -4.16667,5 z"
           style=""
           id="path23845" />
        <path
           d="m 812.68494,2549.4717 v -35 q 0,-12.5 12.5,-12.5 h 9.58333 q 12.5,0 12.5,12.5 v 31.25 l -7.91667,3.75 h -0.41666 v -35 q 0,-5 -4.16667,-5 h -9.58333 q -4.16667,0 -4.16667,5 v 31.25 l -7.91667,3.75 z"
           style=""
           id="path23847" />
      </g>
      <g
         aria-label="Hornstr. 7"
         transform="matrix(0.26458333,0,0,0.26458333,-3.0254689,26.720586)"
         style="font-style:normal;font-variant:normal;font-weight:normal;font-stretch:normal;font-size:85.33333588px;line-height:25px;font-family:'Nova Square';-inkscape-font-specification:'Nova Square, Normal';font-variant-ligatures:normal;font-variant-caps:normal;font-variant-numeric:normal;font-feature-settings:normal;text-align:start;letter-spacing:0px;word-spacing:0px;writing-mode:lr-tb;text-anchor:start;display:inline;fill:#d900ff;fill-opacity:1;stroke:none;stroke-width:1px;stroke-linecap:butt;stroke-linejoin:miter;stroke-opacity:1"
         id="flowRoot1745-1-1-4">
        <path
           d="m 123.4349,2549.4717 v -62.5 l 7.91666,-3.75 h 0.41667 v 29.3333 h 24.58333 v -25.5833 l 7.91667,-3.75 h 0.41667 v 62.5 l -7.91667,3.75 h -0.41667 v -29.3333 h -24.58333 v 25.5833 l -7.91667,3.75 z"
           style=""
           id="path23850" />
        <path
           d="m 191.85156,2540.305 h 9.58334 q 4.16666,0 4.16666,-5 v -20.8333 q 0,-5 -4.16666,-5 h -9.58334 q -4.16666,0 -4.16666,5 v 20.8333 q 0,5 4.16666,5 z m 0,7.5 q -12.5,0 -12.5,-12.5 v -20.8333 q 0,-12.5 12.5,-12.5 h 9.58334 q 12.5,0 12.5,12.5 v 20.8333 q 0,12.5 -12.5,12.5 z"
           style=""
           id="path23852" />
        <path
           d="m 226.51823,2549.4717 v -35 q 0,-12.5 12.5,-12.5 h 10.41667 v 0.4167 l -3.33333,7.0833 h -7.08334 q -4.16666,0 -4.16666,5 v 31.25 l -7.91667,3.75 z"
           style=""
           id="path23854" />
        <path
           d="m 256.51823,2549.4717 v -35 q 0,-12.5 12.5,-12.5 h 9.58334 q 12.5,0 12.5,12.5 v 31.25 l -7.91667,3.75 h -0.41666 v -35 q 0,-5 -4.16667,-5 h -9.58334 q -4.16666,0 -4.16666,5 v 31.25 l -7.91667,3.75 z"
           style=""
           id="path23856" />
        <path
           d="m 314.93491,2547.805 q -12.5,0 -12.5,-12.5 v -1.5 l 7.91666,-3.75 h 0.41667 v 5.25 q 0,5 4.16667,5 h 9.58333 q 4.16667,0 4.16667,-5 v -3.2916 q 0,-5 -4.16667,-5 h -7.83333 q -12.5,0 -12.5,-12.5417 0,-12.5 12.5,-12.5 h 4.875 q 12.5,0 12.5,10.0833 l -7.91667,3.75 h -0.41667 v -1.3333 q 0,-5 -4.16666,-5 h -4.875 q -4.16667,0 -4.16667,5 0,5.0417 4.16667,5.0417 h 7.83333 q 12.5,0 12.5,12.5 v 3.2916 q 0,12.5 -12.5,12.5 z"
           style=""
           id="path23858" />
        <path
           d="m 353.85156,2549.4717 v -39.9167 h -10.70833 v -0.4166 l 3.375,-7.1667 h 7.33333 v -15 l 7.91667,-3.75 h 0.41667 v 18.75 h 10.70833 v 0.4167 l -3.375,7.1666 h -7.33333 v 36.1667 l -7.91667,3.75 z"
           style=""
           id="path23860" />
        <path
           d="m 380.18491,2549.4717 v -35 q 0,-12.5 12.5,-12.5 h 10.41666 v 0.4167 l -3.33333,7.0833 h -7.08333 q -4.16667,0 -4.16667,5 v 31.25 l -7.91667,3.75 z"
           style=""
           id="path23862" />
        <path
           d="m 412.89324,2547.1384 q -1.45833,-1.5 -1.45833,-3.5834 0,-2.125 1.45833,-3.625 1.45833,-1.5 3.54167,-1.5 2.08333,0 3.54166,1.5 1.45834,1.5 1.45834,3.625 0,2.0834 -1.45834,3.5834 -1.45833,1.5 -3.54166,1.5 -2.08334,0 -3.54167,-1.5 z"
           style=""
           id="path23864" />
        <path
           d="m 481.35158,2549.4717 h -0.41666 l -7.5,-3.5417 19.08333,-53.4583 h -28.16667 v -0.4167 l 3.375,-7.1666 h 36.08334 v 0.4166 z"
           style=""
           id="path23866" />
      </g>
    </g>
  </g>
  <g
     inkscape:groupmode="layer"
     id="layer3"
     inkscape:label="Key"
     style="display:inline">
    <rect
       style="fill:#e900d2;fill-opacity:1;stroke-width:0.26458332"
       x="-26.052948"
       y="300.4299"
       width="45.505688"
       height="45.5676"
       id="rect858"
       transform="rotate(-40)" />
    <rect
       style="fill:#e900d2;fill-opacity:1;stroke-width:0.26458332"
       x="110.46426"
       y="300.85544"
       width="45.505688"
       height="45.561253"
       id="rect860"
       transform="rotate(-40)" />
    <rect
       style="fill:#e900d2;fill-opacity:1;stroke-width:0.26458332"
       x="19.452789"
       y="300.85544"
       width="45.505688"
       height="45.561253"
       id="rect862"
       transform="rotate(-40)" />
    <rect
       style="fill:#e900d2;fill-opacity:1;stroke-width:0.26458332"
       x="-71.558685"
       y="300.85544"
       width="45.504097"
       height="45.561253"
       id="rect864"
       transform="rotate(-40)" />
    <rect
       style="fill:#e300e1;fill-opacity:1;stroke-width:0.26458332"
       x="110.46426"
       y="255.16072"
       width="45.505688"
       height="45.569187"
       id="rect866"
       transform="rotate(-40)" />
    <rect
       style="fill:#e300e1;fill-opacity:1;stroke-width:0.26458332"
       x="64.958527"
       y="255.16072"
       width="45.505688"
       height="45.569187"
       id="rect868"
       transform="rotate(-40)" />
    <rect
       style="fill:#e900d2;fill-opacity:1;stroke-width:0.26458332"
       x="201.39297"
       y="300.85544"
       width="45.505688"
       height="45.561253"
       id="rect870"
       transform="rotate(-40)" />
    <rect
       style="fill:#e300e1;fill-opacity:1;stroke-width:0.26458332"
       x="201.39297"
       y="255.16072"
       width="45.505688"
       height="45.569187"
       id="rect872"
       transform="rotate(-40)" />
    <rect
       style="fill:#e300e1;fill-opacity:1;stroke-width:0.26458332"
       x="155.88724"
       y="255.16072"
       width="45.505688"
       height="45.569187"
       id="rect874"
       transform="rotate(-40)" />
    <rect
       style="fill:#e300e1;fill-opacity:1;stroke-width:0.26458332"
       x="19.452789"
       y="255.16072"
       width="45.505688"
       height="45.569187"
       id="rect876"
       transform="rotate(-40)" />
    <rect
       style="fill:#e300e1;fill-opacity:1;stroke-width:0.26458332"
       x="-71.558685"
       y="255.16072"
       width="45.504097"
       height="45.569187"
       id="rect878"
       transform="rotate(-40)" />
    <rect
       style="fill:#de00f0;fill-opacity:1;stroke-width:0.26458332"
       x="19.452789"
       y="209.41072"
       width="45.505688"
       height="45.564426"
       id="rect880"
       transform="rotate(-40)" />
    <rect
       style="fill:#de00f0;fill-opacity:1;stroke-width:0.26458332"
       x="-71.558685"
       y="209.41072"
       width="45.504097"
       height="45.564426"
       id="rect882"
       transform="rotate(-40)" />
    <rect
       style="fill:#d900ff;fill-opacity:1;stroke-width:0.26458332"
       x="19.452789"
       y="163.84457"
       width="45.505688"
       height="45.5676"
       id="rect884"
       transform="rotate(-40)" />
    <rect
       style="fill:#d900ff;fill-opacity:1;stroke-width:0.26458332"
       x="-26.052948"
       y="163.84457"
       width="45.505688"
       height="45.5676"
       id="rect886"
       transform="rotate(-40)" />
    <rect
       style="fill:#d900ff;fill-opacity:1;stroke-width:0.26458332"
       x="-71.558685"
       y="163.84457"
       width="45.504097"
       height="45.5676"
       id="rect888"
       transform="rotate(-40)" />
    <rect
       style="fill:#ee00c4;stroke-width:0.26458332;fill-opacity:1"
       x="155.96994"
       y="-414.62228"
       width="45.505688"
       height="45.554897"
       id="rect890"
       transform="matrix(0.76604444,-0.64278761,-0.64278761,-0.76604444,0,0)" />
    <rect
       style="fill:#ee00c4;stroke-width:0.26458332;fill-opacity:1"
       x="19.44985"
       y="-414.19363"
       width="45.512035"
       height="45.551723"
       id="rect892"
       transform="matrix(0.76604444,-0.64278761,-0.64278761,-0.76604444,0,0)" />
    <rect
       style="fill:#ee00c4;stroke-width:0.26458332;fill-opacity:1"
       x="110.46751"
       y="-414.19363"
       width="45.502514"
       height="45.551723"
       id="rect894"
       transform="matrix(0.76604444,-0.64278761,-0.64278761,-0.76604444,0,0)" />
    <rect
       style="fill:#ee00c4;stroke-width:0.26458332;fill-opacity:1"
       x="201.47568"
       y="-414.19363"
       width="45.505688"
       height="45.551723"
       id="rect896"
       transform="matrix(0.76604444,-0.64278761,-0.64278761,-0.76604444,0,0)" />
    <rect
       style="fill:#f400b5;stroke-width:0.26458332;fill-opacity:1"
       x="19.44985"
       y="-459.95334"
       width="45.512035"
       height="45.562836"
       id="rect898"
       transform="matrix(0.76604444,-0.64278761,-0.64278761,-0.76604444,0,0)" />
    <rect
       style="fill:#f400b5;stroke-width:0.26458332;fill-opacity:1"
       x="64.961815"
       y="-459.95334"
       width="45.505688"
       height="45.562836"
       id="rect900"
       transform="matrix(0.76604444,-0.64278761,-0.64278761,-0.76604444,0,0)" />
    <rect
       style="fill:#ee00c4;stroke-width:0.26458332;fill-opacity:1"
       x="-71.474281"
       y="-414.19363"
       width="45.504097"
       height="45.551723"
       id="rect902"
       transform="matrix(0.76604444,-0.64278761,-0.64278761,-0.76604444,0,0)" />
    <rect
       style="fill:#f400b5;stroke-width:0.26458332;fill-opacity:1"
       x="-71.474281"
       y="-459.95334"
       width="45.504097"
       height="45.562836"
       id="rect904"
       transform="matrix(0.76604444,-0.64278761,-0.64278761,-0.76604444,0,0)" />
    <rect
       style="fill:#f400b5;stroke-width:0.26458332;fill-opacity:1"
       x="-25.971634"
       y="-459.95334"
       width="45.518387"
       height="45.562836"
       id="rect906"
       transform="matrix(0.76604444,-0.64278761,-0.64278761,-0.76604444,0,0)" />
    <rect
       style="fill:#f400b5;stroke-width:0.26458332;fill-opacity:1"
       x="110.46751"
       y="-459.95334"
       width="45.502514"
       height="45.562836"
       id="rect908"
       transform="matrix(0.76604444,-0.64278761,-0.64278761,-0.76604444,0,0)" />
    <rect
       style="fill:#f400b5;stroke-width:0.26458332;fill-opacity:1"
       x="201.47568"
       y="-459.95334"
       width="45.505688"
       height="45.562836"
       id="rect910"
       transform="matrix(0.76604444,-0.64278761,-0.64278761,-0.76604444,0,0)" />
    <rect
       style="fill:#f900a6;stroke-width:0.26458332;fill-opacity:1"
       x="110.46751"
       y="-505.64474"
       width="45.502514"
       height="45.5676"
       id="rect912"
       transform="matrix(0.76604444,-0.64278761,-0.64278761,-0.76604444,0,0)" />
    <rect
       style="fill:#f900a6;stroke-width:0.26458332;fill-opacity:1"
       x="201.47568"
       y="-505.64474"
       width="45.505688"
       height="45.5676"
       id="rect914"
       transform="matrix(0.76604444,-0.64278761,-0.64278761,-0.76604444,0,0)" />
    <rect
       style="fill:#ff0098;stroke-width:0.26458332"
       x="110.46751"
       y="-551.19482"
       width="45.502514"
       height="45.550137"
       id="rect916"
       transform="matrix(0.76604444,-0.64278761,-0.64278761,-0.76604444,0,0)" />
    <rect
       style="fill:#ff0098;stroke-width:0.26458332"
       x="155.96994"
       y="-551.19482"
       width="45.505688"
       height="45.550137"
       id="rect918"
       transform="matrix(0.76604444,-0.64278761,-0.64278761,-0.76604444,0,0)" />
    <rect
       style="fill:#ff0098;stroke-width:0.26458332"
       x="201.47568"
       y="-551.19482"
       width="45.505688"
       height="45.550137"
       id="rect920"
       transform="matrix(0.76604444,-0.64278761,-0.64278761,-0.76604444,0,0)" />
  </g>
  <g
     inkscape:label="Cryptoparty"
     inkscape:groupmode="layer"
     id="layer1"
     transform="translate(0,544)"
     style="display:inline">
    <g
       id="g955"
       transform="translate(4.2333335)">
      <polygon
         id="polygon834"
         points="10.729,11.993 10.729,40.698 10.729,69.367 10.729,98.034 10.729,126.734 39.394,126.734 68.12,126.734 96.785,126.734 96.785,98.034 68.12,98.034 39.394,98.034 39.394,69.367 39.394,40.698 68.12,40.698 96.785,40.698 96.785,11.993 68.12,11.993 39.394,11.993 "
         style="fill:#d900ff;stroke-width:0.5"
         transform="matrix(0.52916666,0,0,0.52916666,206.95213,-82.677323)" />
      <path
         id="path836"
         d="m 288.50475,-76.331043 h -15.16856 v 15.18974 15.17068 15.16962 15.18708 h 15.16856 v -15.18708 h 15.20138 v -15.14898 h 15.16856 v -15.19132 0 -15.18974 h -15.16856 z m 15.20084,15.18974 v 15.1511 h -15.20136 v -15.1511 z"
         style="fill:#d900ff;stroke-width:0.26458332"
         inkscape:connector-curvature="0" />
      <rect
         id="rect838"
         height="15.187084"
         width="15.168563"
         y="-30.801003"
         x="303.7041"
         style="fill:#d900ff;stroke-width:0.26458332" />
      <polygon
         id="polygon840"
         points="297.564,98.034 297.564,126.734 326.229,126.734 326.229,98.034 326.229,69.367 326.229,40.698 326.229,11.993 297.564,11.993 297.564,40.698 297.564,69.33 268.899,69.33 268.899,40.665 268.838,40.665 268.838,11.993 240.173,11.993 240.173,40.665 240.173,40.698 240.173,69.33 240.173,98.034 268.838,98.034 268.899,98.034 "
         style="fill:#d900ff;stroke-width:0.5"
         transform="matrix(0.52916666,0,0,0.52916666,206.95213,-82.677323)" />
      <path
         id="path842"
         d="M 409.91674,-76.331043 H 394.7503 v 15.18974 15.17068 15.16962 15.18708 h 15.16644 v -15.18708 h 15.20402 15.16858 v -15.1892 -15.1511 -0.018 -15.17228 h -15.16858 z m 15.20402,30.34084 h -15.20402 v -15.1511 h 15.20402 z"
         style="fill:#d900ff;stroke-width:0.26458332"
         inkscape:connector-curvature="0" />
      <polygon
         id="polygon844"
         points="469.621,11.993 469.621,40.698 498.294,40.698 498.338,40.698 498.338,69.367 498.338,98.034 498.338,126.734 527.007,126.734 527.007,98.034 527.007,69.367 527.007,40.698 555.68,40.698 555.68,11.993 527.007,11.993 498.294,11.993 "
         style="fill:#d900ff;stroke-width:0.5"
         transform="matrix(0.52916666,0,0,0.52916666,206.95213,-82.677323)" />
      <path
         id="path846"
         d="m 349.87009,-4.5020663 h -15.16856 v 15.1616773 15.168567 15.1945 15.1839 h 15.16856 v -15.1839 h 15.20192 v 15.1839 h 15.16908 V 41.022678 25.827658 10.659611 -4.5020663 H 365.07201 Z M 365.07201,25.828718 H 349.87009 V 10.660151 h 15.20192 z"
         style="fill:#d900ff;stroke-width:0.26458332"
         inkscape:connector-curvature="0" />
      <path
         id="path848"
         d="m 289.16569,-4.5020663 h -15.16961 v 15.1616773 15.168567 15.1945 15.1839 h 15.16961 v -15.1839 h 15.1966 15.17068 v -15.19502 -15.168047 -0.0202 -15.1415773 h -15.17068 z m 15.1966,30.3307843 h -15.1966 V 10.660151 h 15.1966 z"
         style="fill:#d900ff;stroke-width:0.26458332"
         inkscape:connector-curvature="0" />
      <polygon
         id="polygon850"
         points="615.328,241.435 615.328,270.13 643.993,270.13 643.993,241.435 643.993,212.721 643.993,184.056 672.658,184.056 672.658,155.403 643.993,155.403 615.265,155.403 586.6,155.403 586.6,184.056 615.265,184.056 615.328,184.056 615.328,212.721 "
         style="fill:#d900ff;stroke-width:0.5"
         transform="matrix(0.52916666,0,0,0.52916666,145.70808,-86.736142)" />
      <path
         id="path852"
         d="m 410.57981,-4.5020663 h -15.16804 v 15.1616773 15.168567 15.1945 15.1839 h 15.16804 v -15.1839 h 15.20032 v -15.17332 h 15.16856 V 10.681311 10.660111 -4.5015663 H 425.78013 410.57981 Z M 425.78013,10.681311 V 25.828718 H 410.57981 V 10.660151 h 15.20032 z"
         style="fill:#d900ff;stroke-width:0.26458332"
         inkscape:connector-curvature="0" />
      <rect
         id="rect854"
         height="15.183908"
         width="15.168563"
         y="41.023178"
         x="425.78012"
         style="fill:#d900ff;stroke-width:0.26458332" />
      <polygon
         id="polygon856"
         points="701.323,184.056 701.323,212.721 701.323,241.435 729.988,241.435 730.047,241.435 758.712,241.435 758.712,270.13 787.377,270.13 787.377,241.435 787.377,212.721 787.377,184.056 787.377,155.403 758.712,155.403 758.712,184.056 758.712,212.721 730.047,212.721 730.047,184.018 729.988,184.018 729.988,155.403 701.323,155.403 701.323,184.018 "
         style="fill:#d900ff;stroke-width:0.5"
         transform="matrix(0.52916666,0,0,0.52916666,145.70808,-86.736142)" />
      <path
         style="opacity:1;fill:#d900ff;fill-opacity:1;stroke:none;stroke-width:0.1;stroke-linecap:butt;stroke-linejoin:miter;stroke-miterlimit:4;stroke-dasharray:none;stroke-opacity:1;paint-order:normal"
         d="m 516.85653,-76.471833 v 60.85727 h 45.50521 v -60.85727 z m 15.16806,15.18926 h 15.16859 v 30.48134 h -15.16859 z"
         id="rect1824"
         inkscape:connector-curvature="0" />
    </g>
    <flowRoot
       xml:space="preserve"
       id="flowRoot2132"
       style="font-style:normal;font-weight:normal;font-size:13.33333302px;line-height:25px;font-family:sans-serif;letter-spacing:0px;word-spacing:0px;fill:#000000;fill-opacity:1;stroke:none;stroke-width:1px;stroke-linecap:butt;stroke-linejoin:miter;stroke-opacity:1"><flowRegion
         id="flowRegion2134"><rect
           id="rect2136"
           width="903.10706"
           height="500.25049"
           x="92.966904"
           y="2510.1064" /></flowRegion><flowPara
         id="flowPara2138" /></flowRoot>    <flowRoot
       xml:space="preserve"
       id="flowRoot2170"
       style="font-style:normal;font-weight:normal;font-size:13.33333302px;line-height:25px;font-family:sans-serif;letter-spacing:0px;word-spacing:0px;fill:#000000;fill-opacity:1;stroke:none;stroke-width:1px;stroke-linecap:butt;stroke-linejoin:miter;stroke-opacity:1"><flowRegion
         id="flowRegion2172"><rect
           id="rect2174"
           width="137.23686"
           height="53.123943"
           x="411.71057"
           y="2532.2415" /></flowRegion><flowPara
         id="flowPara2176" /></flowRoot>  </g>
</svg>
